<svg width="37" height="29" viewBox="0 0 37 29" fill="none" xmlns="http://www.w3.org/2000/svg">
<path fill-rule="evenodd" clip-rule="evenodd" d="M14.8067 3.35979C13.9739 3.35979 13.1718 3.68536 12.5778 4.27016C12.0016 4.83738 11.6674 5.60363 11.6473 6.41005H25.291C25.2709 5.60363 24.9366 4.83738 24.3605 4.27016C23.7665 3.68536 22.9644 3.35979 22.1315 3.35979H14.8067ZM10.1298 1.90582C11.3674 0.68744 13.0494 0 14.8067 0H22.1315C23.8889 0 25.5709 0.68744 26.8084 1.90582C28.0454 3.12366 28.7374 4.77202 28.7374 6.48743V8.08995C28.7374 9.01773 27.9661 9.76984 27.0147 9.76984H9.92356C8.97212 9.76984 8.20083 9.01773 8.20083 8.08995V6.48743C8.20083 4.77202 8.89284 3.12366 10.1298 1.90582ZM0.72628 13.976C1.14533 13.6577 1.69152 13.5457 2.20655 13.6725L18.0622 17.5752L33.9178 13.6725C34.4329 13.5457 34.9791 13.6577 35.3981 13.976C35.8172 14.2943 36.0622 14.7833 36.0622 15.3013V25.7176C36.0622 26.583 35.7132 27.4161 35.0867 28.0329C34.4596 28.6502 33.6057 29 32.7117 29H3.41265C2.51871 29 1.66474 28.6502 1.03771 28.0329C0.411222 27.4161 0.0621948 26.583 0.0621948 25.7176V15.3013C0.0621948 14.7833 0.307232 14.2943 0.72628 13.976ZM3.50766 17.4579V25.6402H32.6167V17.4579L18.881 20.8388C18.8804 20.8389 18.8799 20.8391 18.8793 20.8392C18.3433 20.9717 17.7811 20.9717 17.2451 20.8392L17.2458 20.8394L17.6675 19.2106L17.2434 20.8388" fill="#ED1C24"/>
<path fill-rule="evenodd" clip-rule="evenodd" d="M1.03771 6.9533C1.66474 6.34478 2.51871 6 3.41265 6H32.7117C33.6057 6 34.4596 6.34478 35.0867 6.9533C35.7132 7.56129 36.0622 8.38255 36.0622 9.2356V16.3441C36.0622 17.2586 35.2909 18 34.3395 18C33.388 18 32.6167 17.2586 32.6167 16.3441V9.31187H3.50766V16.3441C3.50766 17.2586 2.73636 18 1.78493 18C0.833488 18 0.0621948 17.2586 0.0621948 16.3441V9.2356C0.0621948 8.38255 0.411223 7.56128 1.03771 6.9533Z" fill="#ED1C24"/>
</svg>
