<svg width="29" height="27" viewBox="0 0 29 27" fill="none" xmlns="http://www.w3.org/2000/svg">
<path fill-rule="evenodd" clip-rule="evenodd" d="M7.50013 2.7453H1.64166C1.60948 2.7453 1.60947 2.7453 1.57728 2.77731C1.57728 2.77731 1.57728 2.8093 1.57728 2.84131V25.1497C1.57728 25.1817 1.57728 25.1817 1.60947 25.2137C1.60947 25.2137 1.64166 25.2457 1.67385 25.2457H7.53231C7.5645 25.2457 7.5645 25.2457 7.59669 25.2137C7.59669 25.2137 7.62888 25.1817 7.62888 25.1497V2.84131C7.62888 2.8093 7.62888 2.80932 7.59669 2.77731C7.53231 2.7453 7.53232 2.7453 7.50013 2.7453ZM23.3373 5.97794C23.7558 5.91392 24.142 6.20198 24.2064 6.65006C24.2708 7.06615 23.9811 7.45024 23.5304 7.51425L20.1505 7.96233C19.7321 8.02635 19.3458 7.73829 19.2814 7.29021C19.2171 6.87412 19.5068 6.49003 19.9574 6.42602L23.3373 5.97794ZM23.4017 18.9085C23.1442 18.9405 22.9188 19.0685 22.7901 19.2605C22.6613 19.4526 22.5647 19.6766 22.5969 19.9327C22.6291 20.1887 22.7579 20.4128 22.951 20.5408C23.1442 20.6688 23.3695 20.7648 23.627 20.7328C23.8845 20.7008 24.1098 20.5728 24.2386 20.3808C24.3673 20.1887 24.4639 19.9647 24.4317 19.7086C24.3995 19.4526 24.2708 19.2285 24.0776 19.1005C23.8845 18.9405 23.6592 18.8765 23.4017 18.9085ZM21.5347 18.3324C21.921 17.8203 22.5004 17.4682 23.1763 17.3722C23.8523 17.2761 24.4961 17.4682 25.0111 17.8523C25.5262 18.2363 25.8802 18.8125 25.9768 19.4846C26.0734 20.1567 25.8803 20.7968 25.494 21.3089C25.1077 21.821 24.5283 22.1731 23.8523 22.2691C23.1763 22.3651 22.5326 22.1731 22.0175 21.789C21.5025 21.405 21.1484 20.8288 21.0518 20.1567C20.9875 19.4846 21.1806 18.8125 21.5347 18.3324ZM24.0455 2.04115L18.2514 2.84131C18.2192 2.84131 18.2192 2.84132 18.187 2.87332C18.187 2.90533 18.1548 2.90534 18.1548 2.93735C18.9595 10.2668 20.4724 17.7562 21.2128 25.0537C21.2128 25.0857 21.2128 25.0857 21.245 25.1177C21.2772 25.1177 21.2772 25.1497 21.3094 25.1497L27.1035 24.3495C27.1356 24.3495 27.1356 24.3495 27.1678 24.3175C27.1678 24.2855 27.2 24.2855 27.2 24.2535C26.3953 16.9241 24.8824 9.43462 24.142 2.13719C24.142 2.10519 24.142 2.10517 24.1098 2.07317C24.1098 2.04116 24.0776 2.04115 24.0455 2.04115ZM18.0904 1.30502L23.7879 0.53688C23.8201 0.53688 23.8845 0.536873 23.9167 0.504867C24.3352 0.472861 24.7214 0.600881 25.0433 0.824925C25.3652 1.04897 25.5905 1.40103 25.6549 1.81711C25.6549 1.84912 25.6871 1.91313 25.6871 1.94514L28.7129 23.9335C28.7129 23.9655 28.7129 24.0295 28.7451 24.0615C28.7773 24.4776 28.6485 24.8616 28.4232 25.1817C28.1979 25.5018 27.8438 25.7258 27.4253 25.7898C27.3932 25.7898 27.3288 25.8218 27.2966 25.8218L21.5991 26.59C21.5669 26.59 21.5025 26.59 21.4703 26.622C21.0519 26.654 20.6656 26.526 20.3437 26.3019C20.0218 26.0779 19.7965 25.7258 19.7321 25.3097C19.7321 25.2777 19.6999 25.2137 19.6999 25.1817L16.7385 3.70549V25.1177C16.7385 25.5658 16.5453 25.9818 16.2556 26.2699C15.9659 26.558 15.5475 26.75 15.0968 26.75H9.23834C8.91645 26.75 8.62675 26.654 8.36923 26.494C8.11172 26.654 7.82202 26.75 7.50013 26.75H1.64166C1.19101 26.75 0.77255 26.558 0.482845 26.2699C0.193141 25.9818 0 25.5658 0 25.1177V2.80932C0 2.39324 0.16095 2.00915 0.418465 1.7211L0.482845 1.65709C0.77255 1.36904 1.19101 1.177 1.64166 1.177H7.50013C7.82202 1.177 8.11172 1.27302 8.36923 1.43305C8.62675 1.27302 8.91645 1.177 9.23834 1.177H15.0968C15.5475 1.177 15.9659 1.36904 16.2556 1.65709C16.481 1.88114 16.6419 2.1692 16.7063 2.45725C16.7707 2.26521 16.8672 2.07318 16.9638 1.91315C17.1891 1.59309 17.5432 1.36904 17.9617 1.30502C17.9939 1.30502 18.0582 1.30502 18.0904 1.30502ZM12.1354 19.3566C11.8779 19.3566 11.6525 19.4526 11.4916 19.6126C11.3307 19.7726 11.2341 19.9967 11.2341 20.2527C11.2341 20.5088 11.3307 20.7328 11.4916 20.8929C11.6525 21.0529 11.8779 21.1489 12.1354 21.1489C12.3929 21.1489 12.6182 21.0529 12.7792 20.8929L12.8114 20.8609C12.9723 20.7008 13.0689 20.4768 13.0689 20.2527C13.0689 19.9967 12.9723 19.7726 12.8114 19.6126C12.6182 19.4526 12.3929 19.3566 12.1354 19.3566ZM10.365 18.5244C9.91433 18.9725 9.62463 19.5806 9.62463 20.2527C9.62463 20.9249 9.91433 21.533 10.365 21.9811C10.8156 22.4292 11.4272 22.7172 12.1032 22.7172C12.7792 22.7172 13.3908 22.4292 13.8414 21.9811L13.8736 21.9171C14.2921 21.469 14.5496 20.8928 14.5496 20.2207C14.5496 19.5486 14.2599 18.9405 13.8092 18.4924C13.3586 18.0443 12.747 17.7562 12.071 17.7562C11.4272 17.7883 10.8156 18.0763 10.365 18.5244ZM13.8092 6.55405H10.3972C9.9787 6.55405 9.62463 6.90611 9.62463 7.32219C9.62463 7.73828 9.9787 8.09036 10.3972 8.09036H13.8092C14.2277 8.09036 14.5818 7.73828 14.5818 7.32219C14.5818 6.90611 14.2599 6.55405 13.8092 6.55405ZM15.0968 2.7453H9.23834C9.20615 2.7453 9.20615 2.7453 9.17396 2.77731V2.80932V25.1177C9.17396 25.1497 9.17397 25.1497 9.20616 25.1817C9.23835 25.1817 9.23835 25.2137 9.27054 25.2137H15.129C15.1612 25.2137 15.1612 25.2137 15.1934 25.1817C15.1934 25.1817 15.2256 25.1497 15.2256 25.1177V2.80932C15.2256 2.77732 15.2256 2.7773 15.1934 2.7453C15.129 2.7453 15.0968 2.7453 15.0968 2.7453ZM4.5387 19.3566C4.79621 19.3566 5.02154 19.4526 5.18249 19.6126C5.34344 19.7726 5.44 19.9967 5.44 20.2527C5.44 20.5088 5.34344 20.7008 5.18249 20.8609L5.15029 20.8929C4.98935 21.0529 4.76403 21.1489 4.50652 21.1489C4.249 21.1489 4.05586 21.0529 3.89491 20.8929L3.86273 20.8609C3.70178 20.7008 3.60521 20.4768 3.60521 20.2207C3.60521 19.9647 3.70178 19.7406 3.86273 19.5806C4.05586 19.4526 4.28119 19.3566 4.5387 19.3566ZM2.80047 18.5244C3.25112 18.0763 3.86272 17.7883 4.5387 17.7883C5.21468 17.7883 5.82628 18.0763 6.27693 18.5244C6.72758 18.9725 7.01728 19.5806 7.01728 20.2527C7.01728 20.8929 6.75977 21.501 6.34131 21.9491L6.30911 22.0131C5.85846 22.4612 5.24687 22.7492 4.5709 22.7492C3.92711 22.7492 3.3155 22.4932 2.86485 22.0771L2.80047 22.0451C2.34982 21.597 2.06012 20.9889 2.06012 20.3168C2.06012 19.5806 2.34982 18.9725 2.80047 18.5244ZM6.24473 6.55405C6.66319 6.55405 7.01728 6.90611 7.01728 7.32219C7.01728 7.73828 6.66319 8.09036 6.24473 8.09036H2.83267C2.41421 8.09036 2.06012 7.73828 2.06012 7.32219C2.06012 6.90611 2.41421 6.55405 2.83267 6.55405H6.24473Z" fill="white"/>
</svg>
