<svg width="20" height="30" viewBox="0 0 20 30" fill="none" xmlns="http://www.w3.org/2000/svg">
<path fill-rule="evenodd" clip-rule="evenodd" d="M19.3836 7.89517V27.7175C19.3836 28.1594 19.03 28.5066 18.58 28.5066C18.355 28.5066 18.1621 28.4119 18.0014 28.2857H17.6478L16.8441 29.0432C16.5227 29.3589 16.0405 29.3273 15.719 29.0432L14.9154 28.2857H14.4011L13.5974 29.0432C13.276 29.3589 12.7938 29.3273 12.4724 29.0432L11.6687 28.2857H11.1544L10.3508 29.0432C10.0293 29.3589 9.54714 29.3273 9.22569 29.0432L8.42205 28.2857H7.90774L7.10411 29.0432C6.78266 29.3589 6.30048 29.3273 5.97903 29.0432L5.1754 28.2857H4.66106L3.85743 29.0432C3.53597 29.3589 3.0538 29.3273 2.73235 29.0432L1.92871 28.2857H1.54296L1.3501 28.5698C1.02864 28.8854 0.514324 28.8854 0.225016 28.5698C0.0642896 28.412 0 28.2226 0 28.0332V1.23511C0 0.793207 0.353598 0.446 0.803632 0.446C1.06079 0.446 1.25365 0.540705 1.41438 0.730091L1.67154 0.982587H2.0573L2.86093 0.225051C3.18238 -0.0905917 3.66456 -0.0590275 3.98601 0.225051L4.78964 0.982587H5.30398L6.10761 0.225051C6.42906 -0.0905917 6.91124 -0.0590275 7.23269 0.225051L8.03633 0.982587H8.55064L9.35427 0.225051C9.67572 -0.0905917 10.1579 -0.0590275 10.4794 0.225051L11.283 0.982587H11.7973L12.601 0.225051C12.9224 -0.0905917 13.4046 -0.0590275 13.726 0.225051L14.5297 0.982587H15.044L15.8476 0.225051C16.1691 -0.0905917 16.6513 -0.0590275 16.9727 0.225051L17.7763 0.982587H18.1621C18.4836 0.666944 18.9979 0.666944 19.2872 0.982587C19.4479 1.14041 19.5122 1.32981 19.5122 1.5192V7.89517H19.3836ZM11.7652 23.6773H14.8511C15.3011 23.6773 15.6547 23.3301 15.6547 22.8882C15.6547 22.4463 15.3011 22.0991 14.8511 22.0991H11.7652C11.3151 22.0991 10.9615 22.4463 10.9615 22.8882C10.9615 23.3301 11.3473 23.6773 11.7652 23.6773ZM4.46819 23.6773H8.58279C9.03282 23.6773 9.38642 23.3301 9.38642 22.8882C9.38642 22.4463 9.03282 22.0991 8.58279 22.0991H4.46819C4.01816 22.0991 3.66456 22.4463 3.66456 22.8882C3.69671 23.3301 4.05031 23.6773 4.46819 23.6773ZM4.46819 17.7432H14.8511C15.3011 17.7432 15.6547 17.396 15.6547 16.9541C15.6547 16.5122 15.3011 16.165 14.8511 16.165H4.46819C4.01816 16.165 3.66456 16.5122 3.66456 16.9541C3.69671 17.396 4.05031 17.7432 4.46819 17.7432ZM14.8511 12.4089H4.46819C4.01816 12.4089 3.66456 12.7561 3.66456 13.198C3.66456 13.6399 4.01816 13.9871 4.46819 13.9871H14.8511C15.3011 13.9871 15.6547 13.6399 15.6547 13.198C15.6547 12.7561 15.3011 12.4089 14.8511 12.4089ZM4.46819 7.13763H14.8511C15.3011 7.13763 15.6547 6.79043 15.6547 6.34853C15.6547 5.90663 15.3011 5.55942 14.8511 5.55942H4.46819C4.01816 5.55942 3.66456 5.90663 3.66456 6.34853C3.69671 6.79043 4.05031 7.13763 4.46819 7.13763ZM17.7763 9.15775V2.52925H17.3263C17.1334 2.52925 16.9084 2.46613 16.7799 2.3083L16.2977 1.86641L15.8798 2.27673C15.719 2.43455 15.5262 2.5608 15.269 2.5608H14.1118C13.9189 2.5608 13.6939 2.49767 13.5653 2.33985L13.0831 1.89795L12.6652 2.3083C12.5045 2.46613 12.3117 2.59237 12.0545 2.59237H10.8973C10.7044 2.59237 10.4794 2.52924 10.3508 2.37142L9.86861 1.92952L9.4507 2.33985C9.28998 2.49767 9.09712 2.62394 8.83996 2.62394H7.68272C7.48985 2.62394 7.26484 2.56081 7.13626 2.40299L6.65408 1.9611L6.23617 2.37142C6.07545 2.52924 5.88259 2.65551 5.62543 2.65551H4.46819C4.27532 2.65551 4.05031 2.59239 3.92173 2.43456L3.43955 1.99267L2.95736 2.43456C2.79664 2.56082 2.60376 2.65551 2.37875 2.65551H1.60726V26.8653H2.34659C2.57161 26.8653 2.79664 26.9284 2.95736 27.0863L3.43955 27.5281L3.85743 27.1178C4.01815 26.96 4.21103 26.8337 4.46819 26.8337H5.62543C5.8183 26.8337 6.04331 26.8969 6.17189 27.0547L6.65408 27.4966L7.07196 27.0863C7.23268 26.9284 7.42556 26.8022 7.68272 26.8022H8.83996C9.03283 26.8022 9.25784 26.8653 9.38642 27.0231L9.86861 27.465L10.2865 27.0547C10.4472 26.8969 10.6401 26.7706 10.8973 26.7706H12.0545C12.2474 26.7706 12.4724 26.8337 12.601 26.9916L13.0831 27.4335L13.501 27.0231C13.6617 26.8653 13.8546 26.739 14.1118 26.739H15.269C15.4619 26.739 15.6869 26.8022 15.8155 26.96L16.2977 27.4019L16.7155 26.9916C16.8763 26.8337 17.0692 26.7075 17.3263 26.7075H17.7763V9.15775Z" fill="white"/>
</svg>
