<svg width="39" height="29" viewBox="0 0 39 29" fill="none" xmlns="http://www.w3.org/2000/svg">
<path d="M32.6336 23.7273H5.49077C4.77111 23.7266 4.08114 23.4486 3.57227 22.9543C3.0634 22.4601 2.7772 21.7899 2.77648 21.0909V2.63636C2.7772 1.93737 3.0634 1.26721 3.57227 0.772944C4.08114 0.278681 4.77111 0.000697947 5.49077 0H32.6336C33.3533 0.000697947 34.0432 0.278681 34.5521 0.772944C35.061 1.26721 35.3472 1.93737 35.3479 2.63636V21.0909C35.3468 21.7898 35.0605 22.4598 34.5517 22.9539C34.0429 23.4481 33.3532 23.7262 32.6336 23.7273ZM5.49077 2.63636V21.0909H32.6336V2.63636H5.49077ZM0.0621948 26.3636H38.0622V29H0.0621948V26.3636Z" fill="#ED1C24"/>
</svg>
