<svg width="29" height="29" viewBox="0 0 29 29" fill="none" xmlns="http://www.w3.org/2000/svg">
<path d="M14.5 10.875C12.5159 10.875 10.875 12.5171 10.875 14.5C10.875 16.4841 12.5159 18.125 14.5 18.125C16.4829 18.125 18.125 16.4841 18.125 14.5C18.125 12.5171 16.4829 10.875 14.5 10.875Z" fill="#454F5B"/>
<path d="M14.5 6.04166C5.27682 6.04166 2.5049 14.0372 2.47952 14.1182L2.35144 14.5L2.47832 14.8818C2.5049 14.9628 5.27682 22.9583 14.5 22.9583C23.7232 22.9583 26.4951 14.9628 26.5205 14.8818L26.6486 14.5L26.5217 14.1182C26.4951 14.0372 23.7232 6.04166 14.5 6.04166ZM14.5 20.5417C8.03423 20.5417 5.52936 15.8944 4.92277 14.5C5.53177 13.1007 8.03786 8.45833 14.5 8.45833C20.9658 8.45833 23.4707 13.1056 24.0773 14.5C23.4683 15.8992 20.9622 20.5417 14.5 20.5417Z" fill="#454F5B"/>
</svg>
