<svg width="55" height="55" viewBox="0 0 55 55" fill="none" xmlns="http://www.w3.org/2000/svg">
<path d="M41.4597 55H13.5403C6.06361 55 0 48.9391 0 41.4596V13.5403C0 6.06362 6.06089 0 13.5403 0H41.4597C48.9364 0 55 6.06089 55 13.5403V41.4596C55 48.9391 48.9391 55 41.4597 55Z" fill="url(#paint0_linear_338_15419)"/>
<path d="M29.7152 45.7602C28.7348 45.7602 27.7545 45.7602 26.7741 45.7602C26.6197 45.7197 26.4654 45.6522 26.3083 45.6387C17.9996 44.9475 10.1296 37.6333 10.2569 28.4047C10.2569 28.3534 10.2081 28.2994 10.1567 28.1968C10.0402 28.4668 9.95358 28.672 9.86421 28.8772C9.80192 28.861 9.74234 28.8448 9.68005 28.8286C9.98337 27.187 10.2894 25.5454 10.5846 23.9552C10.5521 23.9795 10.4302 24.0605 10.311 24.1442C10.5954 23.0588 10.8987 21.995 11.4701 21.0986C12.3205 19.7594 13.0517 18.431 13.1059 16.7975C13.1194 16.3574 13.3144 15.8876 13.5338 15.4934C13.9806 14.6942 14.5033 13.9355 14.896 13.3118C15.4268 14.3162 15.8818 15.2747 16.4451 16.1657C16.594 16.4033 17.0626 16.5113 17.3984 16.5518C18.3896 16.6679 19.3862 16.7381 20.3855 16.7921C20.6699 16.8083 20.9867 16.7597 21.2413 16.6436C21.9942 16.3007 22.6956 15.8201 23.4756 15.5609C24.112 15.3503 24.8297 15.3773 25.5121 15.299C25.1655 15.8579 24.7782 16.1549 24.4451 16.5032C24.1093 16.8542 23.787 17.2322 23.527 17.6399C22.7227 18.8927 23.286 20.0132 24.7972 20.2157C25.3632 20.2913 25.9319 20.3507 26.4898 20.4587C27.6922 20.6909 27.9414 21.3281 27.0612 22.1894C26.5412 22.6997 25.8073 23.0102 25.1357 23.345C24.1851 23.8175 23.1723 24.128 23.4485 25.5913C23.5758 26.2582 23.1181 26.4499 22.4844 26.1583C21.764 25.8262 21.0978 26.0827 20.9244 26.8468C20.8269 27.2734 20.8161 27.7864 20.9651 28.186C21.5446 29.7493 23.9766 30.9508 25.5961 30.5458C26.2542 30.3811 26.9068 30.1597 27.5758 30.0895C28.7592 29.9653 29.7829 30.3568 30.5169 31.3288C30.9041 31.8418 30.6739 32.4736 30.1269 32.3818C29.1248 32.2144 28.3936 32.722 27.6245 33.1621C26.246 33.9505 24.7863 34.2151 23.2264 33.9127C22.85 33.8398 22.4708 33.7885 21.9373 33.7021C22.1594 33.9775 22.2677 34.1287 22.3923 34.2664C25.309 37.4821 30.5277 37.5847 33.8235 34.4905C37.2359 31.2883 37.2413 26.0179 33.8642 22.7969C31.0747 20.1374 30.0971 16.973 31.3591 13.2551C31.8547 11.7944 32.613 10.4687 33.6665 9.24023C34.2406 10.7441 36.4911 13.3928 37.7477 14.1002C37.8425 13.8464 37.9183 13.5872 38.0321 13.3442C38.135 13.1201 38.2758 12.9122 38.3868 12.7178C40.8161 17.0054 44.0524 20.8475 44.5615 25.9909C44.8269 25.7884 44.9759 25.6723 45.1708 25.5238C45.6285 28.8394 45.0273 31.8634 43.4484 34.7065C43.286 35.0008 43.1343 35.3518 43.1289 35.6785C43.1045 36.9934 42.6874 38.2003 41.745 39.0562C40.5913 40.1038 39.2589 40.9516 37.9969 41.8804C37.7396 42.0694 37.3685 42.1693 37.2006 42.4123C36.0767 44.0457 34.4031 44.7801 32.5859 45.2499C31.6516 45.4902 30.6766 45.5928 29.7152 45.7602Z" fill="white"/>
<defs>
<linearGradient id="paint0_linear_338_15419" x1="0" y1="0" x2="52.5" y2="60" gradientUnits="userSpaceOnUse">
<stop stop-color="#FFB45C"/>
<stop offset="1" stop-color="#FF900E"/>
</linearGradient>
</defs>
</svg>
