<svg width="55" height="55" viewBox="0 0 55 55" fill="none" xmlns="http://www.w3.org/2000/svg">
<path d="M41.4597 55H13.5404C6.06364 55 0 48.9391 0 41.4597V13.5403C0 6.06361 6.06092 0 13.5404 0H41.4597C48.9364 0 55 6.06089 55 13.5403V41.4597C55 48.9391 48.9391 55 41.4597 55Z" fill="url(#paint0_linear_338_15440)"/>
<path d="M16.5781 19.8058C16.3083 20.0211 16.0548 20.2582 15.7632 20.4354C15.6732 20.4899 15.4579 20.4272 15.3489 20.3482C14.2914 19.5959 13.0785 19.5332 11.9992 20.1928C10.898 20.8633 10.3665 22.2506 10.7127 23.5398C11.0507 24.7936 12.1709 25.6712 13.4737 25.7012C14.7765 25.7285 15.7741 25.1097 16.1093 24.0659C16.2511 23.6216 16.2184 23.5725 15.7659 23.5698C15.139 23.5671 14.5094 23.5589 13.8825 23.5725C13.5827 23.578 13.4873 23.4662 13.4873 23.1664C13.4901 22.2997 13.4791 22.2997 14.3268 22.2997C15.2235 22.2997 16.1202 22.3188 17.0169 22.2915C17.3822 22.2806 17.5239 22.4142 17.5403 22.7576C17.6329 24.6709 16.7226 26.3117 14.7247 26.8459C12.4189 27.4646 10.0531 26.1318 9.39899 23.8669C8.69307 21.4302 10.4211 18.841 12.934 18.5221C14.1278 18.3694 15.1908 18.6284 16.142 19.3588C16.2238 19.4215 16.3001 19.4896 16.3737 19.5605C16.4091 19.5932 16.4364 19.6395 16.4664 19.6777C16.5018 19.7213 16.54 19.7622 16.5781 19.8058Z" fill="white"/>
<path d="M33.5421 21.8554C33.7874 21.7464 33.9373 21.6238 34.0872 21.6238C35.1093 21.6183 34.9212 21.5011 34.9294 22.4305C34.9403 23.9023 34.9403 25.3769 34.9267 26.8487C34.9158 28.0888 34.2017 29.04 33.0842 29.3289C31.8468 29.6478 30.6203 29.1518 30.0179 28.0833C29.9634 27.9852 29.9225 27.8789 29.8544 27.7317C30.1924 27.5873 30.4976 27.4319 30.822 27.3365C30.9037 27.312 31.07 27.4592 31.149 27.5655C31.5715 28.1379 32.1275 28.3559 32.7517 28.1678C33.4331 27.9634 33.7656 27.3802 33.6865 26.4889C33.0815 26.955 32.4219 27.0885 31.6969 26.9086C31.0591 26.7505 30.5603 26.3989 30.1787 25.8702C29.3774 24.7554 29.4755 23.2727 30.4349 22.2833C31.13 21.5611 32.3973 21.0378 33.5421 21.8554ZM32.3946 22.6622C31.596 22.6622 30.8983 23.3899 30.9446 24.2348C30.9991 25.276 31.7105 25.7912 32.381 25.7802C33.1905 25.7666 33.7901 25.1261 33.7929 24.2321C33.7956 23.3599 33.1769 22.6622 32.3946 22.6622Z" fill="white"/>
<path d="M20.5684 26.9765C19.0121 26.9738 17.8073 25.78 17.8019 24.2346C17.7964 22.6865 19.0257 21.46 20.5847 21.46C22.1437 21.46 23.3839 22.6974 23.3702 24.2346C23.3566 25.8072 22.1601 26.9792 20.5684 26.9765ZM19.1456 24.2264C19.1456 25.1395 19.7343 25.7773 20.5793 25.7773C21.4405 25.78 22.0347 25.134 22.032 24.2019C22.0293 23.3106 21.4133 22.6592 20.5765 22.6619C19.7452 22.6674 19.1456 23.3243 19.1456 24.2264Z" fill="white"/>
<path d="M26.4828 26.9767C24.9101 26.974 23.7164 25.7748 23.7245 24.1994C23.73 22.6622 24.9456 21.4575 26.4992 21.4629C27.9464 21.4684 29.2547 22.4877 29.2792 24.2348C29.3038 25.7884 28.0636 26.9795 26.4828 26.9767ZM27.9519 24.2484C27.9573 23.3299 27.3414 22.6622 26.4964 22.6622C25.6788 22.6622 25.0383 23.3408 25.0246 24.2157C25.011 25.077 25.6624 25.772 26.4828 25.7775C27.325 25.7829 27.9492 25.1343 27.9519 24.2484Z" fill="white"/>
<path d="M38.9523 25.0768C39.5002 26.0144 40.3969 26.0035 41.5062 25.0632C41.8115 25.2676 42.1276 25.4775 42.4711 25.7092C42.005 26.4369 41.3699 26.8294 40.5823 26.9575C39.4021 27.1483 38.2573 26.5786 37.7313 25.5783C37.1671 24.5045 37.3252 23.1008 38.1456 22.2559C38.8433 21.539 39.7073 21.2883 40.6749 21.5554C41.6043 21.8143 42.1331 22.5093 42.4329 23.387C42.4601 23.4633 42.3021 23.6677 42.1903 23.7168C41.2527 24.1229 40.3042 24.5045 39.3584 24.8969C39.2303 24.9487 39.105 25.0087 38.9523 25.0768ZM40.9284 23.1199C40.6531 22.6865 40.2034 22.5393 39.7019 22.6865C39.1295 22.8528 38.718 23.4115 38.7425 24.0302C39.4784 23.7249 40.2006 23.4224 40.9284 23.1199Z" fill="white"/>
<path d="M31.953 33.8095C31.953 35.404 30.8628 36.5187 29.3038 36.516C27.772 36.5133 26.66 35.3631 26.6681 33.7823C26.6763 32.2042 27.7883 31.0703 29.3283 31.0703C30.8682 31.0703 31.9557 32.2041 31.953 33.8095ZM30.8928 34.0139C30.8955 33.0245 30.5003 32.3731 29.8543 32.1415C28.8022 31.7626 27.8619 32.553 27.7693 33.4961C27.7011 34.1911 27.8401 34.7962 28.4043 35.235C28.8895 35.6111 29.4427 35.652 29.9906 35.3849C30.6311 35.0687 30.8737 34.5018 30.8928 34.0139Z" fill="white"/>
<path d="M22.1247 32.6078C22.1247 31.493 22.1328 30.3782 22.1192 29.2635C22.1165 28.9936 22.2064 28.9119 22.4708 28.9146C23.6891 28.9255 24.9047 28.9255 26.1231 28.9146C26.4065 28.9119 26.5292 29.0018 26.4937 29.288C26.4828 29.3752 26.4828 29.4679 26.4937 29.5578C26.5319 29.8577 26.4011 29.9694 26.104 29.964C25.2836 29.953 24.4632 29.9776 23.6428 29.9531C23.2667 29.9422 23.1495 30.0675 23.174 30.4355C23.204 30.907 23.1931 31.384 23.1767 31.8582C23.1658 32.139 23.2558 32.2425 23.5474 32.2371C24.3024 32.2207 25.0601 32.248 25.8151 32.2262C26.2703 32.2125 26.1667 32.5151 26.1803 32.7658C26.1939 33.0275 26.1939 33.2374 25.8151 33.2237C25.0601 33.1965 24.3024 33.2264 23.5474 33.2101C23.2558 33.2046 23.1713 33.3055 23.1767 33.5862C23.1903 34.3685 23.1686 35.1507 23.1876 35.9302C23.1958 36.2627 23.1004 36.3854 22.7543 36.3718C22.0184 36.3418 22.1301 36.4317 22.1274 35.7258C22.1192 34.6819 22.1247 33.6435 22.1247 32.6078Z" fill="white"/>
<path d="M45.3301 32.297C45.0494 32.4224 44.8613 32.496 44.6787 32.5886C44.4797 32.6895 44.3489 32.6677 44.1936 32.4769C43.8393 32.0435 43.2042 31.8909 42.7354 32.1362C42.5664 32.2234 42.3592 32.4333 42.3592 32.5886C42.3592 32.7413 42.5691 32.9593 42.7354 33.0356C43.0325 33.1719 43.3732 33.2101 43.6893 33.3109C44.0055 33.4118 44.3298 33.5044 44.6188 33.6598C45.5018 34.1422 45.6245 35.2897 44.8859 35.9684C43.8474 36.9223 41.9395 36.6198 41.2363 35.396C41.0701 35.1043 41.0891 34.9326 41.4353 34.8318C41.6152 34.78 41.7869 34.6901 41.9831 34.6083C42.0622 34.7364 42.1276 34.8454 42.1957 34.949C42.5609 35.4914 43.2478 35.7231 43.8147 35.4505C44.0001 35.3605 44.2453 35.1425 44.2426 34.9844C44.2399 34.7991 44.0382 34.5402 43.8529 34.4502C43.5285 34.2867 43.1497 34.2376 42.7981 34.1204C42.4955 34.0196 42.1821 33.9323 41.9096 33.7743C41.021 33.2619 40.9692 32.1198 41.7842 31.4984C42.6291 30.8552 44.0736 30.9124 44.845 31.6429C45.0221 31.8173 45.1448 32.0463 45.3301 32.297Z" fill="white"/>
<path d="M33.6756 31.7304C34.3133 31.1253 35.022 30.9373 35.8315 31.1471C36.5701 31.3406 37.0335 31.8394 37.088 32.5726C37.1725 33.7446 37.1561 34.922 37.1643 36.0995C37.1643 36.1867 37.0171 36.3339 36.9217 36.3502C36.1613 36.462 36.1286 36.4211 36.1177 35.6661C36.1068 34.7857 36.0904 33.9027 36.0604 33.0223C36.0441 32.5699 35.8206 32.2455 35.3708 32.1147C34.8966 31.9757 34.4551 32.0357 34.098 32.4063C33.7819 32.7361 33.6483 33.1422 33.6456 33.5947C33.6428 34.4014 33.6374 35.2082 33.651 36.015C33.6565 36.2794 33.5747 36.3693 33.3049 36.3693C32.5908 36.372 32.5908 36.3829 32.5908 35.6797C32.5908 34.3878 32.5826 33.0932 32.599 31.8012C32.6017 31.5887 32.4354 31.2561 32.8824 31.2289C33.5366 31.1826 33.5693 31.1907 33.6756 31.7304Z" fill="white"/>
<path d="M36.9327 22.7902C36.9327 23.9949 36.9245 25.1996 36.9381 26.4043C36.9408 26.7096 36.8754 26.8322 36.5402 26.8268C35.6408 26.8159 35.6408 26.8322 35.6408 25.9437C35.6408 23.7006 35.6462 21.4574 35.6353 19.217C35.6326 18.8763 35.7144 18.7455 36.0796 18.7537C36.9327 18.7755 36.9327 18.7564 36.9327 19.6013C36.9327 20.6643 36.9327 21.7272 36.9327 22.7902Z" fill="white"/>
<path d="M39.9961 36.437C39.0177 36.4397 38.4398 35.8782 38.4317 34.9025C38.4235 34.1339 38.418 33.3653 38.4344 32.5994C38.4426 32.3023 38.3608 32.1769 38.0474 32.1987C37.9002 32.2096 37.6303 32.1524 37.6194 32.0924C37.5758 31.8335 37.5922 31.5609 37.6303 31.2993C37.6358 31.2584 37.8593 31.2175 37.9765 31.2312C38.3608 31.2802 38.4835 31.1112 38.4344 30.7515C38.4153 30.6124 38.4317 30.4707 38.4317 30.329C38.4317 29.7103 38.7233 29.5004 39.3284 29.7021C39.402 29.7266 39.4756 29.8656 39.481 29.9583C39.5001 30.2772 39.5001 30.5988 39.4865 30.9177C39.4756 31.1548 39.5737 31.2421 39.8026 31.2257C39.9689 31.2148 40.1379 31.2066 40.3014 31.2284C40.4377 31.2475 40.6775 31.2966 40.683 31.3565C40.713 31.6154 40.7048 31.8907 40.6448 32.1415C40.6312 32.1987 40.345 32.2014 40.1842 32.2042C39.3938 32.2205 39.4974 32.1061 39.4919 32.8992C39.4865 33.4879 39.4864 34.0766 39.4946 34.6654C39.5028 35.2541 39.7481 35.4558 40.3259 35.404C40.4186 35.3958 40.5658 35.483 40.6094 35.5648C40.961 36.2489 40.8492 36.4233 40.0752 36.4315C40.0479 36.437 40.0234 36.437 39.9961 36.437Z" fill="white"/>
<defs>
<linearGradient id="paint0_linear_338_15440" x1="3.09995e-07" y1="1.54" x2="49.06" y2="52.14" gradientUnits="userSpaceOnUse">
<stop stop-color="#9EFFDC"/>
<stop offset="1" stop-color="#00AD6F"/>
</linearGradient>
</defs>
</svg>
