<svg width="27" height="27" viewBox="0 0 27 27" fill="none" xmlns="http://www.w3.org/2000/svg">
<path fill-rule="evenodd" clip-rule="evenodd" d="M13.9901 0.72547C13.742 0.446365 13.2769 0.41537 12.9977 0.694476L0.748106 12.1378C0.593048 12.2618 0.500031 12.4479 0.500031 12.665V14.1535C0.500031 14.5257 0.810128 14.8358 1.18227 14.8358H3.105V24.7906H1.21329C0.841146 24.7906 0.531025 25.1007 0.531025 25.4728C0.531025 25.845 0.841146 26.1551 1.21329 26.1551H3.81828H23.2936H25.8986C26.2708 26.1551 26.5809 25.845 26.5809 25.4728C26.5809 25.1007 26.2708 24.7906 25.8986 24.7906H23.9759V14.8978H25.8986C26.2708 14.8978 26.5809 14.5877 26.5809 14.2156V12.727C26.5809 12.5409 26.5189 12.3549 26.3638 12.2308L13.9901 0.72547ZM25.2163 13.0061L13.4939 2.15201L1.89555 12.9751V13.4713H3.81828C4.19042 13.4713 4.50055 13.7814 4.50055 14.1535V24.7906H22.5804V14.1535C22.5804 13.7814 22.8905 13.4713 23.2626 13.4713H25.1854V13.0061H25.2163Z" fill="white"/>
<path d="M12.9358 21.7514C12.4086 21.7514 11.9124 21.5653 11.5092 21.1932C10.2377 20.0147 9.46245 18.4332 9.09031 16.3244C9.02829 16.0453 9.09031 15.8282 9.21436 15.6421C9.40043 15.394 9.71055 15.363 10.0207 15.332C11.7573 15.2079 13.525 14.9598 15.3237 14.5257C16.099 14.3396 16.9053 14.0915 17.6495 13.8434C18.5489 13.5643 19.4482 13.2542 20.4096 13.0681L20.9057 12.9751L20.6887 13.4403L20.4406 13.3472L20.6577 13.4403C19.8204 15.27 19.0451 16.6965 18.1767 17.8749C16.6572 19.9837 15.0756 21.2552 13.4319 21.6583C13.3079 21.7204 13.1218 21.7514 12.9358 21.7514Z" fill="white"/>
<path d="M8.12891 14.8978C7.47766 14.8978 7.01248 14.7427 6.7954 14.3706C6.54731 13.9985 6.57832 13.4713 6.88843 12.758C7.3226 11.7966 7.97384 10.9903 8.87318 10.3701C8.90419 10.3391 8.9352 10.3391 8.96621 10.3081C9.15228 10.153 9.46241 9.93594 9.80354 10.122C10.1137 10.2771 10.0516 10.6182 10.0516 10.8042C10.0516 10.8663 10.0516 10.9283 10.0516 10.9593V11.0213C10.1447 12.2618 10.2067 13.4093 11.3541 14.2156L11.9433 14.6187L11.2301 14.6807C10.92 14.7117 10.6098 14.7428 10.2997 14.7738C9.61746 14.8358 8.99723 14.8978 8.34599 14.9288C8.22194 14.8978 8.15992 14.8978 8.12891 14.8978Z" fill="white"/>
</svg>
