<svg width="54" height="54" viewBox="0 0 54 54" fill="none" xmlns="http://www.w3.org/2000/svg">
<rect width="54" height="54" rx="8" fill="url(#paint0_linear_338_15601)"/>
<path fill-rule="evenodd" clip-rule="evenodd" d="M23.8004 18.6752C21.1122 18.6752 18.642 19.765 16.862 21.545C15.082 23.325 13.9923 25.7589 13.9923 28.4834C13.9923 31.1715 15.082 33.6417 16.862 35.4217C18.642 37.2017 21.0759 38.2915 23.8004 38.2915C26.4885 38.2915 28.9587 37.2017 30.7387 35.4217C32.5187 33.6417 33.6085 31.2078 33.6085 28.4834C33.6085 25.7952 32.5187 23.325 30.7387 21.545C28.9224 19.765 26.4885 18.6752 23.8004 18.6752ZM20.6763 17.7307V13.4806C20.6763 13.1173 20.9669 12.7903 21.3665 12.7903H41.3097C41.673 12.7903 41.9999 13.081 41.9999 13.4806V19.0022V24.5238V30.0454V35.567C41.9999 35.9303 41.7093 36.2572 41.3097 36.2572H31.7922L31.6832 36.3662C29.6489 38.4005 26.8881 39.6356 23.8004 39.6356C20.7126 39.6356 17.9155 38.4005 15.9175 36.3662C13.8833 34.3319 12.6482 31.5711 12.6482 28.4834C12.6482 25.3956 13.8833 22.5985 15.9175 20.6005C17.2253 19.2565 18.86 18.2756 20.6763 17.7307ZM32.9183 34.8768C33.7902 33.6417 34.4077 32.2613 34.7346 30.7356H40.6195V34.8768H32.9183ZM34.9162 29.3552H40.6195V25.214H34.4803C34.8073 26.2311 34.9526 27.3209 34.9526 28.4471C34.9526 28.774 34.9162 29.0646 34.9162 29.3552ZM33.9355 23.8336C33.3906 22.5985 32.5914 21.5087 31.6469 20.5642C31.3199 20.2373 30.993 19.9467 30.666 19.6924H40.5832V23.8336H33.9355ZM28.4501 18.312H40.5832V14.1708H22.0204V17.4401C22.6016 17.3675 23.1828 17.2948 23.7641 17.2948C25.4714 17.2948 27.0334 17.6581 28.4501 18.312Z" fill="white"/>
<path d="M18.0244 24.7055H20.1677C21.1121 24.7055 21.8387 24.8508 22.3109 25.1051C22.7831 25.3957 23.0375 25.8679 23.0375 26.5218C23.0375 26.8124 23.0011 27.0667 22.8921 27.2847C22.7832 27.5026 22.6379 27.6842 22.4199 27.8659C22.2383 28.0112 21.984 28.1202 21.6934 28.1565V28.1928C21.984 28.2292 22.2746 28.3381 22.4925 28.4834C22.7468 28.6287 22.9285 28.8104 23.0375 29.0283C23.1828 29.2826 23.2554 29.5732 23.2554 29.9728C23.2554 30.4087 23.1465 30.8083 22.9285 31.1353C22.7105 31.4622 22.4199 31.6801 22.0203 31.8618C21.6207 32.0434 21.1485 32.1161 20.6399 32.1161H18.0244V24.7055ZM19.0415 27.8295H20.3493C20.9305 27.8295 21.3664 27.7206 21.5844 27.539C21.8023 27.3573 21.9477 27.0667 21.9477 26.6671C21.9477 26.2675 21.8024 26.0132 21.5481 25.8316C21.2575 25.65 20.8215 25.5773 20.2403 25.5773H19.0779V27.8295H19.0415ZM19.0415 28.6651V31.2442H20.4583C21.0758 31.2442 21.5117 31.1353 21.766 30.881C22.0203 30.6267 22.1293 30.2997 22.1293 29.9001C22.1293 29.6459 22.0567 29.4279 21.9477 29.2463C21.8387 29.0646 21.657 28.9194 21.4027 28.8104C21.1485 28.7014 20.8215 28.6651 20.3856 28.6651H19.0415Z" fill="white"/>
<path d="M27.2514 25.4683C26.8518 25.4683 26.5249 25.5409 26.2342 25.6862C25.9436 25.8315 25.6894 26.0132 25.4714 26.2674C25.2535 26.5217 25.1081 26.8123 24.9992 27.1756C24.8902 27.5389 24.8175 27.9385 24.8175 28.3744C24.8175 28.9556 24.8902 29.5005 25.0718 29.9364C25.2535 30.3723 25.5078 30.6993 25.871 30.9536C26.2343 31.2079 26.6702 31.3168 27.2151 31.3168C27.542 31.3168 27.8326 31.2805 28.1595 31.2442C28.4501 31.1715 28.7408 31.0989 29.0314 31.0262V31.9344C28.7408 32.0434 28.4501 32.116 28.1595 32.1887C27.8689 32.225 27.5057 32.2613 27.1061 32.2613C26.3432 32.2613 25.7257 32.116 25.2171 31.7891C24.7085 31.4621 24.3453 31.0262 24.091 30.445C23.8367 29.8638 23.7278 29.2099 23.7278 28.4107C23.7278 27.8658 23.8004 27.3209 23.9457 26.885C24.091 26.4128 24.3453 26.0132 24.6359 25.6862C24.9265 25.3593 25.2898 25.0687 25.762 24.8871C26.198 24.7054 26.7065 24.5964 27.2877 24.5964C27.651 24.5964 28.0143 24.6328 28.3775 24.7054C28.7408 24.7781 29.0677 24.8871 29.3583 25.0324L28.9587 25.9042C28.7044 25.7952 28.4501 25.6862 28.1595 25.6136C27.8689 25.5409 27.542 25.4683 27.2514 25.4683Z" fill="white"/>
<path d="M35.679 37.783C35.679 37.9646 35.6427 38.1099 35.5701 38.2189C35.4974 38.3279 35.4247 38.4369 35.2794 38.5095C35.1705 38.5822 35.0252 38.6548 34.8798 38.6912V38.7275C35.1705 38.7638 35.4247 38.8728 35.5701 39.0181C35.7154 39.1634 35.788 39.3814 35.788 39.6356C35.788 39.8536 35.7517 40.0352 35.6427 40.2169C35.5337 40.3985 35.3884 40.5075 35.1705 40.6165C34.9525 40.7255 34.6619 40.7618 34.335 40.7618C34.117 40.7618 33.9354 40.7618 33.7901 40.7254C33.6448 40.6891 33.4631 40.6528 33.2815 40.5801V40.0716C33.4268 40.1442 33.6084 40.2169 33.7901 40.2532C33.9717 40.2895 34.1534 40.3259 34.335 40.3259C34.6619 40.3259 34.9162 40.2532 35.0615 40.1442C35.2068 39.9989 35.2794 39.8536 35.2794 39.5993C35.2794 39.454 35.2431 39.345 35.1705 39.2361C35.0978 39.1271 34.9888 39.0544 34.8072 39.0181C34.6619 38.9818 34.4803 38.9455 34.226 38.9455H33.8627V38.5095H34.226C34.444 38.5095 34.6256 38.4732 34.7346 38.4369C34.8799 38.3642 34.9888 38.2916 35.0251 38.1826C35.0978 38.0736 35.1342 37.9646 35.1342 37.8193C35.1342 37.6377 35.0615 37.4924 34.9525 37.4197C34.8435 37.3107 34.6619 37.2744 34.444 37.2744C34.2987 37.2744 34.1896 37.2744 34.0807 37.3108C33.9717 37.3471 33.8627 37.3834 33.7901 37.4197C33.7174 37.4561 33.6085 37.5287 33.5358 37.565L33.2815 37.2018C33.4268 37.0928 33.6084 37.0201 33.7901 36.9112C34.008 36.8385 34.226 36.8022 34.4803 36.8022C34.8798 36.8022 35.1705 36.8748 35.3521 37.0565C35.5701 37.3108 35.679 37.5287 35.679 37.783Z" fill="white"/>
<path d="M36.3694 39.0907C36.3694 38.8728 36.3694 38.6548 36.4057 38.4369C36.442 38.2189 36.4784 38.0009 36.551 37.8193C36.6237 37.6377 36.7326 37.456 36.878 37.3107C37.0233 37.1654 37.1686 37.0564 37.3865 36.9838C37.6045 36.9111 37.8224 36.8748 38.113 36.8748C38.1857 36.8748 38.2584 36.8748 38.3673 36.8748C38.4763 36.8748 38.549 36.9111 38.5853 36.9111V37.3471C38.5126 37.3107 38.44 37.3107 38.3673 37.3107C38.2947 37.3107 38.222 37.3107 38.113 37.3107C37.7861 37.3107 37.5318 37.3834 37.3502 37.4924C37.1686 37.6377 37.0233 37.783 36.9506 38.0373C36.878 38.2552 36.8416 38.5095 36.8053 38.8001H36.8416C36.8779 38.7275 36.9506 38.6548 37.0232 38.5821C37.0959 38.5095 37.2049 38.4732 37.3138 38.4005C37.4228 38.3642 37.5681 38.3279 37.7134 38.3279C37.9314 38.3279 38.113 38.3642 38.2947 38.4732C38.4763 38.5821 38.5853 38.6911 38.6579 38.8728C38.7306 39.0544 38.8032 39.2723 38.8032 39.4903C38.8032 39.7446 38.7669 39.9626 38.6579 40.1805C38.5489 40.3622 38.4036 40.5075 38.222 40.6165C38.0404 40.7254 37.8224 40.7618 37.5682 40.7618C37.3865 40.7618 37.2049 40.7254 37.0596 40.6528C36.9143 40.5801 36.769 40.4711 36.66 40.3258C36.551 40.1805 36.442 39.9989 36.3694 39.8173C36.3694 39.6356 36.3694 39.3814 36.3694 39.0907ZM37.6408 40.3258C37.8587 40.3258 38.0404 40.2532 38.1493 40.1079C38.2583 39.9626 38.331 39.7446 38.331 39.454C38.331 39.236 38.2583 39.0181 38.1493 38.9091C38.0404 38.7638 37.8587 38.6911 37.6408 38.6911C37.4955 38.6911 37.3502 38.7275 37.2412 38.8001C37.1322 38.8728 37.0233 38.9454 36.9506 39.0544C36.878 39.1634 36.8416 39.2724 36.8416 39.3813C36.8416 39.4903 36.8416 39.5993 36.878 39.7083C36.9143 39.8173 36.9506 39.9263 37.0232 39.9989C37.0959 40.1079 37.1686 40.1805 37.2775 40.2169C37.4228 40.3258 37.5318 40.3258 37.6408 40.3258Z" fill="white"/>
<path d="M41.8908 38.8002C41.8908 39.0908 41.8545 39.3814 41.8181 39.6356C41.7818 39.8899 41.7092 40.0716 41.6002 40.2532C41.4912 40.4348 41.3822 40.5438 41.2006 40.6528C41.0553 40.7255 40.8373 40.7981 40.6194 40.7981C40.3287 40.7981 40.1108 40.7254 39.8928 40.5801C39.7112 40.4348 39.5659 40.2169 39.4932 39.9263C39.3843 39.6357 39.3479 39.2724 39.3479 38.8728C39.3479 38.4732 39.3842 38.1099 39.4569 37.8193C39.5295 37.5287 39.6748 37.3108 39.8565 37.1655C40.0381 37.0202 40.2924 36.9475 40.5831 36.9475C40.8737 36.9475 41.1279 37.0202 41.3096 37.1655C41.4912 37.3108 41.6365 37.5287 41.7455 37.8193C41.8545 38.0736 41.8908 38.4006 41.8908 38.8002ZM39.8928 38.8002C39.8928 39.1271 39.9291 39.4177 39.9654 39.6356C40.0018 39.8536 40.1108 40.0352 40.2198 40.1442C40.3287 40.2532 40.474 40.3259 40.6557 40.3259C40.8373 40.3259 40.9826 40.2532 41.0916 40.1442C41.2006 40.0352 41.2732 39.8536 41.3459 39.6356C41.3822 39.4177 41.4186 39.1271 41.4186 38.8002C41.4186 38.4732 41.3822 38.1826 41.3459 37.9646C41.3096 37.7467 41.2369 37.5651 41.1279 37.4561C41.019 37.3471 40.8737 37.2745 40.692 37.2745C40.5104 37.2745 40.365 37.3471 40.2561 37.4561C40.1471 37.5651 40.0744 37.7467 40.0381 37.9646C39.9291 38.2189 39.8928 38.4732 39.8928 38.8002Z" fill="white"/>
<defs>
<linearGradient id="paint0_linear_338_15601" x1="0" y1="0" x2="54" y2="54" gradientUnits="userSpaceOnUse">
<stop stop-color="#5BE5D4"/>
<stop offset="1" stop-color="#1DB19D"/>
</linearGradient>
</defs>
</svg>
