<svg width="24" height="24" viewBox="0 0 24 24" fill="none" xmlns="http://www.w3.org/2000/svg">
<path fill-rule="evenodd" clip-rule="evenodd" d="M2.62864 0.371826C2.00388 0.371826 1.43864 0.639585 1.02213 1.02634C0.605623 1.44285 0.367615 2.00811 0.367615 2.63287V20.989C0.367615 21.6137 0.635373 22.179 1.02213 22.5955C1.43864 23.012 2.00388 23.25 2.62864 23.25H21.0442C21.669 23.25 22.2343 22.9822 22.6508 22.5955C23.0673 22.179 23.3053 21.6137 23.3053 20.989V2.63287C23.3053 2.00811 23.0375 1.44285 22.6508 1.02634C22.2343 0.609834 21.669 0.371826 21.0442 0.371826H2.62864ZM21.0442 1.6511H2.62864C2.36088 1.6511 2.12289 1.7701 1.94439 1.9486C1.76589 2.1271 1.64687 2.36512 1.64687 2.63287V20.989C1.64687 21.2567 1.76589 21.4947 1.94439 21.6732C2.12289 21.8517 2.36088 21.9707 2.62864 21.9707H21.0442C21.312 21.9707 21.55 21.8517 21.7285 21.6732C21.907 21.4947 22.026 21.2567 22.026 20.989V2.63287C22.026 2.36512 21.907 2.1271 21.7285 1.9486C21.55 1.7701 21.312 1.6511 21.0442 1.6511Z" fill="white"/>
<path fill-rule="evenodd" clip-rule="evenodd" d="M10.661 12.4504H12.446H13.041V10.1894H10.661V12.4504ZM12.8923 13.1347C13.0411 13.5512 13.1005 14.057 13.1303 14.5627C13.1303 15.0685 13.1006 15.604 12.9816 16.0502L12.684 17.2105L13.6063 15.7825C13.8443 15.4255 13.9633 15.009 13.9336 14.5925C13.9038 14.176 13.7551 13.7892 13.4575 13.4322L13.1898 13.1347H12.8923ZM11.8808 19.3823H11.851C11.8213 19.3823 11.7915 19.3823 11.7618 19.3526C11.7618 19.3526 11.7321 19.3228 11.7321 19.2931L9.70899 16.199C9.38174 15.6932 9.233 15.1577 9.26275 14.5925C9.2925 14.0272 9.50073 13.4917 9.88749 13.0455L10.1552 12.7182V9.89189V5.36982C10.1552 5.07232 10.2742 4.7748 10.4825 4.5963C10.6907 4.38805 10.9585 4.26904 11.256 4.26904H12.7436C13.0411 4.26904 13.3088 4.38806 13.5171 4.56657L13.5468 4.5963C13.755 4.80455 13.8741 5.07232 13.8741 5.36982V9.89189V12.7182L14.1418 13.0455C14.5286 13.4917 14.7368 14.0272 14.7666 14.5925C14.7963 15.128 14.6476 15.6932 14.3203 16.199L12.2973 19.2931C12.2675 19.3228 12.2378 19.3228 12.208 19.3526C12.208 19.3526 12.208 19.3526 12.1783 19.3526L11.8808 19.3823ZM11.018 17.2105L10.7205 16.0502C10.6015 15.5742 10.542 15.0685 10.5717 14.5627C10.5717 14.057 10.661 13.5512 10.8097 13.1347H10.5123L10.2445 13.4322C9.94702 13.7595 9.79826 14.176 9.76851 14.5925C9.73876 15.009 9.85776 15.4255 10.0958 15.7825L11.018 17.2105ZM11.494 13.1347L11.4345 13.343C11.3155 13.7 11.256 14.1462 11.2263 14.5925C11.2263 15.0387 11.256 15.5147 11.375 15.9015L11.851 17.746L12.3271 15.9015C12.4163 15.485 12.4758 15.0387 12.4758 14.5925C12.4758 14.1462 12.3865 13.7 12.2675 13.343L12.208 13.1347H11.494ZM13.0113 9.50514V5.34006C13.0113 5.22106 12.9518 5.10206 12.8923 5.04256C12.8031 4.98306 12.7138 4.92356 12.5948 4.92356H11.1073C10.9883 4.92356 10.8692 4.98306 10.8097 5.04256C10.7205 5.13181 10.6908 5.22106 10.6908 5.34006V9.50514H13.0113Z" fill="white"/>
</svg>
