<svg width="26" height="26" viewBox="0 0 26 26" fill="none" xmlns="http://www.w3.org/2000/svg">
<path d="M10.2767 25.6872C9.26144 25.6872 8.35031 25.3227 7.56935 24.5938C5.14837 22.3551 3.66455 19.3353 2.96168 15.3264C2.85755 14.7797 2.93564 14.3632 3.19596 14.0508C3.56041 13.6083 4.15915 13.5042 4.73185 13.4781C8.0119 13.2699 11.4221 12.7492 14.8323 11.9683C16.3422 11.6298 17.826 11.1352 19.2838 10.6667C20.9759 10.12 22.72 9.54728 24.5162 9.18283L25.4534 9.00061L25.0629 9.88571L24.6204 9.72951L25.0629 9.91173C23.501 13.4 22.0172 16.0813 20.3771 18.3722C17.4876 22.4071 14.4679 24.8021 11.37 25.557C11.0056 25.6351 10.6411 25.6872 10.2767 25.6872Z" fill="white"/>
<path d="M3.37817 9.75563C2.1026 9.75563 1.26956 9.44325 0.827015 8.76642C0.332406 8.06355 0.410506 7.04829 0.983211 5.72065C1.79021 3.89841 3.06577 2.36253 4.73183 1.13902C4.78389 1.11299 4.83596 1.06092 4.88802 1.00885C5.25247 0.748532 5.82518 0.279951 6.47598 0.618368C7.04869 0.930752 6.97058 1.55552 6.91852 1.89393C6.89249 1.99806 6.89249 2.12823 6.89249 2.20633V2.31046C7.04868 4.65334 7.17884 6.84004 9.3395 8.37593L10.4329 9.15688L9.07919 9.26101C8.45442 9.31308 7.88171 9.36516 7.28298 9.41722C6.00741 9.54738 4.80993 9.65149 3.58642 9.70356C3.56039 9.75562 3.45626 9.75563 3.37817 9.75563Z" fill="white"/>
</svg>
