<svg width="30" height="24" viewBox="0 0 30 24" fill="none" xmlns="http://www.w3.org/2000/svg">
<path fill-rule="evenodd" clip-rule="evenodd" d="M25.9679 18.4681C25.0225 19.0669 24.2346 19.4766 23.3207 19.5396C22.4383 19.6026 21.5243 19.2875 20.4529 18.4681C19.6335 18.6572 18.9402 18.9408 18.4359 19.319C17.9947 19.6342 17.7426 20.0438 17.7426 20.4851V22.4705C17.7426 22.565 17.7741 22.6595 17.8371 22.7226C17.9002 22.7856 17.9947 22.8171 18.0893 22.8171H28.2369C28.3315 22.8171 28.426 22.7856 28.4891 22.7226C28.5521 22.6595 28.5836 22.565 28.5836 22.4705V20.4851C28.5836 20.0123 28.3315 19.6342 27.8903 19.2875C27.4491 18.9408 26.7557 18.6572 25.9679 18.4681ZM20.6104 13.3943C20.6419 13.4573 20.5789 13.3628 20.6104 13.3943C20.6104 13.7725 20.6104 14.0246 20.7365 14.4028C20.894 14.8124 21.1146 15.2221 21.3668 15.5688C21.4298 15.6633 21.5243 15.7579 21.5874 15.8524C21.5874 15.8524 21.5874 15.8524 21.6189 15.8839C21.8395 16.1045 22.0601 16.2936 22.2807 16.4197C22.3122 16.4512 22.3752 16.4827 22.4067 16.4827C22.6273 16.5772 22.8165 16.6403 23.0371 16.6718H23.0686C23.1001 16.6718 23.1316 16.6718 23.1631 16.6403C23.2892 16.6088 23.4152 16.5457 23.5413 16.4827C23.4152 16.5446 23.7323 16.8924 23.7323 16.6403L23.8604 16.4827C24.3646 16.4827 24.6421 16.1676 24.9257 15.8524C25.5245 15.1871 25.4006 14.8124 25.5267 14.4028C25.6843 14.0246 25.8418 13.5834 25.8418 13.1737L25.5267 13.2052C25.4006 13.3628 24.9909 13.5834 24.8334 13.4573C24.8018 13.4258 24.7703 13.4258 24.7388 13.3943C24.7073 13.3628 24.7073 13.3628 24.6758 13.3312C24.2976 13.0161 23.5413 12.827 22.7534 12.827C21.9655 12.827 21.2092 12.9846 20.7995 13.3628C20.768 13.3943 20.7365 13.4258 20.705 13.4573C20.5789 13.6149 20.6909 13.689 20.5333 13.5314C21.006 13.4999 20.6104 13.4258 20.6104 13.3943ZM20.4843 11.2198C21.2092 10.8416 22.2177 10.684 23.2261 10.684C24.2031 10.684 25.18 10.8731 25.8733 11.1883C25.7788 10.0853 25.2746 9.32892 23.1631 9.32892C21.0831 9.32892 20.5789 10.0853 20.4843 11.2198ZM20.831 12.3858L20.9886 12.638C21.5559 12.2598 22.4067 12.0707 23.2576 12.0707C24.077 12.0707 24.7716 12.5119 25.3074 12.827L25.8418 11.9761C25.3061 11.598 24.3291 11.4089 23.2891 11.4089C22.2492 11.4089 21.1777 11.598 20.6419 12.0392L20.831 12.3858ZM22.8164 8.57258C22.848 8.38349 23.0055 8.25744 23.1946 8.25744C23.3837 8.25744 23.5413 8.38349 23.5728 8.57258C26.7242 8.69864 26.6927 10.2744 26.6612 12.3543C26.6612 12.5119 26.6612 12.701 26.6612 12.9846V13.1422V13.1737V13.2052C26.6612 13.7094 26.5667 14.2137 26.3776 14.6864C26.1885 15.1906 25.9364 15.6633 25.6212 16.0415C25.5582 16.1045 25.4952 16.1991 25.4321 16.2621C25.4321 16.3251 25.4321 16.3882 25.4321 16.4827C25.4637 16.8294 25.4952 17.2391 25.5267 17.4597L25.9048 17.7118C26.8818 17.9324 27.7642 18.279 28.3945 18.7202C29.0248 19.193 29.3715 19.7917 29.3715 20.4851V22.4705C29.3715 22.7856 29.2454 23.0692 29.0563 23.2583L29.0248 23.2898C28.8357 23.4789 28.5521 23.605 28.2684 23.605H18.1208C17.8056 23.605 17.522 23.4789 17.3329 23.2898C17.1438 23.1008 17.0178 22.8171 17.0178 22.502V20.5166C17.0178 19.7917 17.396 19.1929 17.9947 18.7517C18.625 18.279 19.4759 17.9639 20.4843 17.7433L20.8626 17.4912C20.8941 17.2706 20.9255 16.8294 20.9255 16.4827V16.2621C20.8625 16.1991 20.7995 16.136 20.7365 16.0415C20.4213 15.6318 20.1692 15.1591 19.9802 14.6864C19.7911 14.2137 19.6965 13.7094 19.6965 13.2052V13.1737V13.1422C19.6965 13.0791 19.6965 13.0161 19.6965 12.9846C19.6965 12.701 19.6965 12.5119 19.6965 12.3543C19.6965 10.2744 19.665 8.69864 22.8164 8.57258ZM21.2407 18.0899L21.3983 17.9639C21.4613 17.9009 21.5244 17.8378 21.5559 17.7748C21.6189 17.6172 21.6504 17.2391 21.6819 16.8609C21.7449 16.9239 21.8395 16.9554 21.934 17.0185C21.9971 17.05 22.0601 17.0815 22.1231 17.113C22.3752 17.2391 22.6274 17.3336 22.8795 17.3651H22.911C22.9425 17.3651 22.9425 17.3651 22.974 17.3651H23.0055H23.0371H23.0686H23.1001H23.1316H23.1631H23.1946H23.2261H23.2576H23.2891H23.3207H23.3522H23.3837H23.4152C23.6358 17.3336 23.8564 17.2391 24.077 17.1445H24.1085H24.14L24.1716 17.113L24.7388 16.8609C24.7703 17.2391 25.1289 17.8306 24.9257 17.9639C25.1289 17.8621 25.0365 17.8063 25.0365 18.0899L24.6128 18.3421C23.951 18.7518 23.3522 19.0039 22.7534 19.0354C22.6589 18.8463 22.0286 18.6257 21.2407 18.0899Z" fill="white"/>
<path fill-rule="evenodd" clip-rule="evenodd" d="M17.1124 5.85533H5.45207C5.10541 5.85533 4.82179 6.13898 4.82179 6.48564C4.82179 6.8323 5.10541 7.11592 5.45207 7.11592H17.1124C17.4591 7.11592 17.7428 6.8323 17.7428 6.48564C17.7112 6.13898 17.4276 5.85533 17.1124 5.85533ZM5.45207 13.1667C5.10541 13.1667 4.82179 13.4503 4.82179 13.797C4.82179 14.1437 5.10541 14.4273 5.45207 14.4273H14.6228V13.1667H5.45207ZM11.2823 9.51103H5.45207C5.10541 9.51103 4.82179 9.79465 4.82179 10.1413C4.82179 10.488 5.10541 10.7716 5.45207 10.7716H11.2823C11.6289 10.7716 11.9126 10.488 11.9126 10.1413C11.9126 9.79465 11.6289 9.51103 11.2823 9.51103ZM11.2823 16.7909H5.45207C5.10541 16.7909 4.82179 17.0745 4.82179 17.4212C4.82179 17.7678 5.10541 18.0515 5.45207 18.0515H11.2823C11.6289 18.0515 11.9126 17.7678 11.9126 17.4212C11.9126 17.0745 11.6289 16.7909 11.2823 16.7909ZM17.1124 5.85533H5.45207C5.10541 5.85533 4.82179 6.13898 4.82179 6.48564C4.82179 6.8323 5.10541 7.11592 5.45207 7.11592H17.1124C17.4591 7.11592 17.7428 6.8323 17.7428 6.48564C17.7112 6.13898 17.4276 5.85533 17.1124 5.85533ZM11.2823 9.51103H5.45207C5.10541 9.51103 4.82179 9.79465 4.82179 10.1413C4.82179 10.488 5.10541 10.7716 5.45207 10.7716H11.2823C11.6289 10.7716 11.9126 10.488 11.9126 10.1413C11.9126 9.79465 11.6289 9.51103 11.2823 9.51103ZM5.45207 13.1667C5.10541 13.1667 4.82179 13.4503 4.82179 13.797C4.82179 14.1437 5.10541 14.4273 5.45207 14.4273H14.6228V13.1667H5.45207ZM11.2823 16.7909H5.45207C5.10541 16.7909 4.82179 17.0745 4.82179 17.4212C4.82179 17.7678 5.10541 18.0515 5.45207 18.0515H11.2823C11.6289 18.0515 11.9126 17.7678 11.9126 17.4212C11.9126 17.0745 11.6289 16.7909 11.2823 16.7909ZM11.2823 16.7909H5.45207C5.10541 16.7909 4.82179 17.0745 4.82179 17.4212C4.82179 17.7678 5.10541 18.0515 5.45207 18.0515H11.2823C11.6289 18.0515 11.9126 17.7678 11.9126 17.4212C11.9126 17.0745 11.6289 16.7909 11.2823 16.7909ZM11.2823 9.51103H5.45207C5.10541 9.51103 4.82179 9.79465 4.82179 10.1413C4.82179 10.488 5.10541 10.7716 5.45207 10.7716H11.2823C11.6289 10.7716 11.9126 10.488 11.9126 10.1413C11.9126 9.79465 11.6289 9.51103 11.2823 9.51103ZM5.45207 13.1667C5.10541 13.1667 4.82179 13.4503 4.82179 13.797C4.82179 14.1437 5.10541 14.4273 5.45207 14.4273H14.6228V13.1667H5.45207ZM17.1124 5.85533H5.45207C5.10541 5.85533 4.82179 6.13898 4.82179 6.48564C4.82179 6.8323 5.10541 7.11592 5.45207 7.11592H17.1124C17.4591 7.11592 17.7428 6.8323 17.7428 6.48564C17.7112 6.13898 17.4276 5.85533 17.1124 5.85533ZM21.8396 1.4118C21.4299 1.00211 20.8942 0.75 20.2639 0.75H2.23757C1.6388 0.75 1.07154 1.00211 0.661847 1.4118C0.252158 1.82149 6.86646e-05 2.35724 6.86646e-05 2.98753V20.9193C6.86646e-05 21.5181 0.252158 22.0853 0.661847 22.495C1.07154 22.9047 1.60728 23.1568 2.23757 23.1568H14.5913V21.8962H2.23757C1.98546 21.8962 1.73337 21.8017 1.57579 21.6126C1.38671 21.4235 1.29218 21.2029 1.29218 20.9193V2.98753C1.29218 2.73541 1.38671 2.4833 1.57579 2.32572C1.76488 2.16815 1.98546 2.04208 2.23757 2.04208H20.2639C20.516 2.04208 20.7681 2.13664 20.9257 2.32572C21.1148 2.51481 21.2093 2.73541 21.2093 2.98753V8.1559H22.4699V2.98753C22.5014 2.38875 22.2493 1.82149 21.8396 1.4118ZM11.2823 16.7909H5.45207C5.10541 16.7909 4.82179 17.0745 4.82179 17.4212C4.82179 17.7678 5.10541 18.0515 5.45207 18.0515H11.2823C11.6289 18.0515 11.9126 17.7678 11.9126 17.4212C11.9126 17.0745 11.6289 16.7909 11.2823 16.7909ZM11.2823 9.51103H5.45207C5.10541 9.51103 4.82179 9.79465 4.82179 10.1413C4.82179 10.488 5.10541 10.7716 5.45207 10.7716H11.2823C11.6289 10.7716 11.9126 10.488 11.9126 10.1413C11.9126 9.79465 11.6289 9.51103 11.2823 9.51103ZM5.45207 13.1667C5.10541 13.1667 4.82179 13.4503 4.82179 13.797C4.82179 14.1437 5.10541 14.4273 5.45207 14.4273H14.6228V13.1667H5.45207ZM17.1124 5.85533H5.45207C5.10541 5.85533 4.82179 6.13898 4.82179 6.48564C4.82179 6.8323 5.10541 7.11592 5.45207 7.11592H17.1124C17.4591 7.11592 17.7428 6.8323 17.7428 6.48564C17.7112 6.13898 17.4276 5.85533 17.1124 5.85533ZM17.1124 5.85533H5.45207C5.10541 5.85533 4.82179 6.13898 4.82179 6.48564C4.82179 6.8323 5.10541 7.11592 5.45207 7.11592H17.1124C17.4591 7.11592 17.7428 6.8323 17.7428 6.48564C17.7112 6.13898 17.4276 5.85533 17.1124 5.85533ZM5.45207 13.1667C5.10541 13.1667 4.82179 13.4503 4.82179 13.797C4.82179 14.1437 5.10541 14.4273 5.45207 14.4273H14.6228V13.1667H5.45207ZM11.2823 9.51103H5.45207C5.10541 9.51103 4.82179 9.79465 4.82179 10.1413C4.82179 10.488 5.10541 10.7716 5.45207 10.7716H11.2823C11.6289 10.7716 11.9126 10.488 11.9126 10.1413C11.9126 9.79465 11.6289 9.51103 11.2823 9.51103ZM11.2823 16.7909H5.45207C5.10541 16.7909 4.82179 17.0745 4.82179 17.4212C4.82179 17.7678 5.10541 18.0515 5.45207 18.0515H11.2823C11.6289 18.0515 11.9126 17.7678 11.9126 17.4212C11.9126 17.0745 11.6289 16.7909 11.2823 16.7909Z" fill="white"/>
</svg>
