<svg width="55" height="55" viewBox="0 0 55 55" fill="none" xmlns="http://www.w3.org/2000/svg">
<rect width="55" height="55" rx="8" fill="#E1001B"/>
<path d="M15.1572 22.2246C15.1572 23.127 14.8314 23.8379 14.1797 24.3574C13.5326 24.877 12.6302 25.1367 11.4727 25.1367C10.4062 25.1367 9.46289 24.9362 8.64258 24.5352V22.5664C9.31706 22.8672 9.88672 23.0791 10.3516 23.2021C10.821 23.3252 11.2493 23.3867 11.6367 23.3867C12.1016 23.3867 12.457 23.2979 12.7031 23.1201C12.9538 22.9424 13.0791 22.6781 13.0791 22.3271C13.0791 22.1312 13.0244 21.958 12.915 21.8076C12.8057 21.6527 12.6439 21.5046 12.4297 21.3633C12.2201 21.222 11.7894 20.9964 11.1377 20.6865C10.527 20.3994 10.069 20.1237 9.76367 19.8594C9.45833 19.5951 9.21452 19.2874 9.03223 18.9365C8.84993 18.5856 8.75879 18.1755 8.75879 17.7061C8.75879 16.8219 9.05729 16.127 9.6543 15.6211C10.2559 15.1152 11.0853 14.8623 12.1426 14.8623C12.6621 14.8623 13.1566 14.9238 13.626 15.0469C14.0999 15.1699 14.5944 15.3431 15.1094 15.5664L14.4258 17.2139C13.8926 16.9951 13.4505 16.8424 13.0996 16.7559C12.7533 16.6693 12.4115 16.626 12.0742 16.626C11.6732 16.626 11.3656 16.7194 11.1514 16.9062C10.9372 17.0931 10.8301 17.3369 10.8301 17.6377C10.8301 17.8245 10.8734 17.9886 10.96 18.1299C11.0465 18.2666 11.1833 18.401 11.3701 18.5332C11.5615 18.6608 12.0104 18.8932 12.7168 19.2305C13.651 19.6771 14.2913 20.126 14.6377 20.5771C14.984 21.0238 15.1572 21.5729 15.1572 22.2246ZM23.0869 25L22.3623 22.6211H18.7188L17.9941 25H15.7109L19.2383 14.9648H21.8291L25.3701 25H23.0869ZM21.8564 20.8438C21.1865 18.6882 20.8083 17.4691 20.7217 17.1865C20.6396 16.904 20.5804 16.6807 20.5439 16.5166C20.3936 17.0999 19.9629 18.5423 19.252 20.8438H21.8564ZM26.6348 25V15.0059H28.7539V23.25H32.8076V25H26.6348ZM40.3066 25H34.5508V15.0059H40.3066V16.7422H36.6699V18.9365H40.0537V20.6729H36.6699V23.25H40.3066V25ZM13.1133 41H10.9941V32.7695H8.28027V31.0059H15.8271V32.7695H13.1133V41ZM26.4365 35.9893C26.4365 37.6436 26.0264 38.915 25.2061 39.8037C24.3857 40.6924 23.21 41.1367 21.6787 41.1367C20.1475 41.1367 18.9717 40.6924 18.1514 39.8037C17.3311 38.915 16.9209 37.639 16.9209 35.9756C16.9209 34.3122 17.3311 33.043 18.1514 32.168C18.9762 31.2884 20.1566 30.8486 21.6924 30.8486C23.2282 30.8486 24.4017 31.2907 25.2129 32.1748C26.0286 33.0589 26.4365 34.3304 26.4365 35.9893ZM19.1426 35.9893C19.1426 37.1058 19.3545 37.9466 19.7783 38.5117C20.2021 39.0768 20.8356 39.3594 21.6787 39.3594C23.3695 39.3594 24.2148 38.236 24.2148 35.9893C24.2148 33.738 23.374 32.6123 21.6924 32.6123C20.8493 32.6123 20.2135 32.8971 19.7852 33.4668C19.3568 34.0319 19.1426 34.8727 19.1426 35.9893ZM37.5791 35.9893C37.5791 37.6436 37.1689 38.915 36.3486 39.8037C35.5283 40.6924 34.3525 41.1367 32.8213 41.1367C31.29 41.1367 30.1143 40.6924 29.2939 39.8037C28.4736 38.915 28.0635 37.639 28.0635 35.9756C28.0635 34.3122 28.4736 33.043 29.2939 32.168C30.1188 31.2884 31.2992 30.8486 32.835 30.8486C34.3708 30.8486 35.5443 31.2907 36.3555 32.1748C37.1712 33.0589 37.5791 34.3304 37.5791 35.9893ZM30.2852 35.9893C30.2852 37.1058 30.4971 37.9466 30.9209 38.5117C31.3447 39.0768 31.9782 39.3594 32.8213 39.3594C34.512 39.3594 35.3574 38.236 35.3574 35.9893C35.3574 33.738 34.5166 32.6123 32.835 32.6123C31.9919 32.6123 31.3561 32.8971 30.9277 33.4668C30.4993 34.0319 30.2852 34.8727 30.2852 35.9893ZM39.6504 41V31.0059H41.7695V39.25H45.8232V41H39.6504Z" fill="#FFC20E"/>
</svg>
