<svg width="17" height="30" viewBox="0 0 17 30" fill="none" xmlns="http://www.w3.org/2000/svg">
<path fill-rule="evenodd" clip-rule="evenodd" d="M5.53472 18.656C5.13588 18.656 4.83675 18.3518 4.83675 17.9463C4.83675 17.5407 5.13588 17.2365 5.53472 17.2365H7.8281V14.3976H6.53182C6.0665 14.3976 5.63444 14.1948 5.30206 13.8906L5.26882 13.8568C4.96969 13.5526 4.8035 13.1133 4.8035 12.6739V10.4771C4.8035 10.0039 5.00293 9.56459 5.30206 9.22662C5.6012 8.92244 6.03327 8.71966 6.53182 8.71966H7.8281V8.21269C7.8281 7.80713 8.12723 7.50296 8.52607 7.50296C8.92492 7.50296 9.22405 7.80713 9.22405 8.21269V8.71966H10.9856C11.3845 8.71966 11.6836 9.02383 11.6836 9.42939C11.6836 9.83496 11.3845 10.1391 10.9856 10.1391H9.22405V12.9443H10.5203C10.9856 12.9443 11.3845 13.1133 11.6836 13.4174L11.7168 13.4513C12.016 13.7554 12.2154 14.1948 12.2154 14.7017V16.8985C12.2154 17.3717 12.016 17.8111 11.7168 18.149C11.4177 18.4532 10.9856 18.656 10.4871 18.656H9.19081V19.1629C9.19081 19.5685 8.89167 19.8727 8.49283 19.8727C8.09398 19.8727 7.79485 19.5685 7.79485 19.1629V18.656H5.53472ZM7.99427 27.1391C7.59542 27.1391 7.29629 26.8349 7.29629 26.4293C7.29629 26.0238 7.59542 25.7196 7.99427 25.7196H9.0911C9.48995 25.7196 9.78908 26.0238 9.78908 26.4293C9.78908 26.8349 9.48995 27.1391 9.0911 27.1391H7.99427ZM1.64598 2.94036H15.4394V2.36581C15.4394 2.09544 15.3397 1.82506 15.1735 1.65608C15.0406 1.48709 14.8411 1.38569 14.6417 1.38569H2.44367C2.24424 1.38569 2.04481 1.48709 1.91186 1.65608C1.74567 1.82506 1.64598 2.09544 1.64598 2.36581V2.94036ZM15.4394 4.35983H1.64598V23.3876H15.4394V4.35983ZM15.4394 24.8409H1.64598V26.9025C1.64598 27.1729 1.74567 27.4432 1.91186 27.6122C2.04481 27.7812 2.24424 27.8826 2.44367 27.8826H14.6417C14.8411 27.8826 15.0406 27.7812 15.1735 27.6122C15.3397 27.4432 15.4394 27.1729 15.4394 26.9025V24.8409ZM2.44367 0C1.81216 0 1.28036 0.270374 0.881514 0.709736C0.482668 1.1491 0.25 1.72367 0.25 2.36581V3.65009V24.1311V26.9025C0.25 27.5446 0.482668 28.1192 0.881514 28.5586C1.28036 28.9979 1.8454 29.2683 2.44367 29.2683H14.6417C15.2732 29.2683 15.805 28.9979 16.2039 28.5586C16.6027 28.1192 16.8354 27.5446 16.8354 26.9025V24.1311V3.65009V2.36581C16.8354 1.72367 16.6027 1.1491 16.2039 0.709736C15.805 0.270374 15.24 0 14.6417 0H2.44367ZM9.25729 17.2027H10.5535C10.6533 17.2027 10.7197 17.1689 10.7862 17.1013C10.8527 17.0338 10.8859 16.9662 10.8859 16.8648V14.668C10.8859 14.5666 10.8527 14.499 10.7862 14.4314L10.753 14.3976C10.6865 14.3638 10.62 14.33 10.5535 14.33H9.25729V17.2027ZM7.8281 10.1053H6.53182C6.43211 10.1053 6.36564 10.1391 6.29916 10.2067C6.23269 10.2743 6.19946 10.3419 6.19946 10.4433V12.6401C6.19946 12.7077 6.23271 12.8091 6.26594 12.8429L6.29916 12.8767C6.36564 12.9443 6.43211 12.9781 6.53182 12.9781H7.8281V10.1053Z" fill="white"/>
</svg>
