<svg width="37" height="27" viewBox="0 0 37 27" fill="none" xmlns="http://www.w3.org/2000/svg">
<path d="M32.6872 2.25C32.9856 2.25 33.2717 2.36853 33.4827 2.5795C33.6937 2.79048 33.8122 3.07663 33.8122 3.375V23.625C33.8122 23.9234 33.6937 24.2095 33.4827 24.4205C33.2717 24.6315 32.9856 24.75 32.6872 24.75H3.43719C3.13883 24.75 2.85268 24.6315 2.6417 24.4205C2.43072 24.2095 2.31219 23.9234 2.31219 23.625V3.375C2.31219 3.07663 2.43072 2.79048 2.6417 2.5795C2.85268 2.36853 3.13883 2.25 3.43719 2.25H32.6872ZM3.43719 0C2.54209 0 1.68364 0.355579 1.05071 0.988515C0.417774 1.62145 0.0621948 2.47989 0.0621948 3.375L0.0621948 23.625C0.0621948 24.5201 0.417774 25.3786 1.05071 26.0115C1.68364 26.6444 2.54209 27 3.43719 27H32.6872C33.5823 27 34.4407 26.6444 35.0737 26.0115C35.7066 25.3786 36.0622 24.5201 36.0622 23.625V3.375C36.0622 2.47989 35.7066 1.62145 35.0737 0.988515C34.4407 0.355579 33.5823 0 32.6872 0H3.43719Z" fill="#ED1C24"/>
<path d="M6.81219 14.625C6.81219 14.3267 6.93072 14.0405 7.1417 13.8295C7.35268 13.6186 7.63883 13.5 7.93719 13.5H28.1872C28.4856 13.5 28.7717 13.6186 28.9827 13.8295C29.1937 14.0405 29.3122 14.3267 29.3122 14.625C29.3122 14.9234 29.1937 15.2095 28.9827 15.4205C28.7717 15.6315 28.4856 15.75 28.1872 15.75H7.93719C7.63883 15.75 7.35268 15.6315 7.1417 15.4205C6.93072 15.2095 6.81219 14.9234 6.81219 14.625ZM6.81219 19.125C6.81219 18.8267 6.93072 18.5405 7.1417 18.3295C7.35268 18.1186 7.63883 18 7.93719 18H21.4372C21.7356 18 22.0217 18.1186 22.2327 18.3295C22.4437 18.5405 22.5622 18.8267 22.5622 19.125C22.5622 19.4234 22.4437 19.7095 22.2327 19.9205C22.0217 20.1315 21.7356 20.25 21.4372 20.25H7.93719C7.63883 20.25 7.35268 20.1315 7.1417 19.9205C6.93072 19.7095 6.81219 19.4234 6.81219 19.125ZM6.81219 7.87503C6.81219 7.57666 6.93072 7.29051 7.1417 7.07954C7.35268 6.86856 7.63883 6.75003 7.93719 6.75003H28.1872C28.4856 6.75003 28.7717 6.86856 28.9827 7.07954C29.1937 7.29051 29.3122 7.57666 29.3122 7.87503V10.125C29.3122 10.4234 29.1937 10.7095 28.9827 10.9205C28.7717 11.1315 28.4856 11.25 28.1872 11.25H7.93719C7.63883 11.25 7.35268 11.1315 7.1417 10.9205C6.93072 10.7095 6.81219 10.4234 6.81219 10.125V7.87503Z" fill="#ED1C24"/>
</svg>
