<svg width="55" height="55" viewBox="0 0 55 55" fill="none" xmlns="http://www.w3.org/2000/svg">
<path d="M41.4597 55H13.5403C6.06361 55 0 48.9391 0 41.4597V13.5403C0 6.06362 6.06089 0 13.5403 0H41.4597C48.9364 0 55 6.06089 55 13.5403V41.4597C55 48.9391 48.9391 55 41.4597 55Z" fill="url(#paint0_linear_338_15430)"/>
<path d="M30.0233 14.4749C29.9282 17.5271 29.3929 20.3276 28.5043 23.057C28.2923 23.7052 28.3548 24.1783 28.7189 24.7527C30.0804 26.8996 31.5532 28.9535 33.3494 30.7585C33.5179 30.9281 33.6783 30.9691 33.8984 30.939C35.681 30.6901 37.4691 30.5233 39.2707 30.537C40.9365 30.5479 42.5914 30.6682 44.1648 31.2672C44.7165 31.4778 45.2573 31.7595 45.7355 32.1041C46.7192 32.8151 47.2382 33.8134 47.0372 35.0386C46.8252 36.3349 46.0888 37.2484 44.7953 37.6504C43.8088 37.954 42.8007 37.9732 41.7898 37.8747C38.3713 37.541 35.5152 35.963 32.9418 33.7806C32.7489 33.6192 32.5831 33.5727 32.3413 33.6192C29.238 34.2318 26.1945 35.0769 23.1971 36.0806C23.083 36.1189 22.9662 36.231 22.9037 36.3377C21.6998 38.3834 20.4281 40.3799 18.9172 42.2122C17.8411 43.5168 16.678 44.7256 15.2378 45.6336C14.3383 46.1997 13.3791 46.6072 12.3057 46.6373C11.0393 46.6729 9.89257 46.3337 9.06376 45.3191C8.17244 44.2279 8.17517 43.0245 8.80561 41.8075C9.31106 40.8284 10.0964 40.0927 10.9415 39.4199C12.6372 38.0661 14.5367 37.0488 16.4824 36.1216C17.2541 35.7524 18.0449 35.4242 18.8221 35.066C18.928 35.0167 19.0367 34.9183 19.0938 34.8143C21.2188 30.8323 22.958 26.6835 24.3901 22.4007C24.4227 22.2995 24.4091 22.16 24.3656 22.0588C23.5586 20.169 22.9254 18.2245 22.6047 16.187C22.3547 14.6062 22.2623 13.02 22.6862 11.4501C23.0314 10.1757 23.7868 9.27041 25.0803 8.91214C26.42 8.54293 27.9309 9.10632 28.8086 10.2714C29.4961 11.1848 29.8086 12.246 29.9472 13.3646C29.988 13.7939 30.0043 14.2206 30.0233 14.4749ZM34.9446 32.6592C35.0261 32.7331 35.0478 32.7577 35.075 32.7796C35.325 32.9656 35.5696 33.1597 35.825 33.3375C37.3685 34.4068 39.0316 35.2109 40.8686 35.6157C41.5507 35.7661 42.2327 35.7387 42.8414 35.3394C43.6839 34.787 43.7219 33.6165 42.9094 33.023C42.6838 32.8562 42.4202 32.703 42.1512 32.6456C41.5534 32.5198 40.9447 32.3912 40.3387 32.3885C39.0207 32.3803 37.7001 32.4377 36.3821 32.4897C35.9201 32.5061 35.4609 32.5963 34.9446 32.6592ZM18.0096 37.6504C17.9715 37.6641 17.9335 37.6778 17.8954 37.6942C16.716 38.3095 15.5177 38.8921 14.36 39.5485C13.2649 40.1665 12.2377 40.894 11.3627 41.8102C10.9768 42.2122 10.6317 42.6471 10.4795 43.2023C10.2649 43.9899 10.8029 44.6053 11.6073 44.4877C12.2404 44.3947 12.7486 44.0501 13.2269 43.6563C15.2432 42.0071 16.6671 39.8684 18.0096 37.6504ZM25.6727 19.9693C25.7461 19.756 25.8059 19.5974 25.8548 19.4388C26.5015 17.4095 26.8874 15.3309 26.9852 13.2032C27.0097 12.6617 26.9716 12.1256 26.7706 11.6142C26.651 11.3134 26.4771 11.0618 26.1673 10.9332C25.6754 10.7281 25.0776 10.9606 24.8711 11.5185C24.689 12.0163 24.5694 12.5523 24.5042 13.0801C24.3629 14.237 24.4988 15.3884 24.708 16.5288C24.9173 17.683 25.2379 18.8097 25.6727 19.9693ZM30.7733 31.434C29.4418 30.0173 28.2787 28.5268 27.2705 26.9378C26.4417 28.9753 25.6156 31.0046 24.8004 33.0066C26.7597 32.4897 28.7461 31.9673 30.7733 31.434Z" fill="white"/>
<defs>
<linearGradient id="paint0_linear_338_15430" x1="3.5" y1="-1.60912e-06" x2="55" y2="55" gradientUnits="userSpaceOnUse">
<stop stop-color="#FF7176"/>
<stop offset="1" stop-color="#ED1C24"/>
</linearGradient>
</defs>
</svg>
