<svg width="22" height="24" viewBox="0 0 22 24" fill="none" xmlns="http://www.w3.org/2000/svg">
<path fill-rule="evenodd" clip-rule="evenodd" d="M15.4629 12.6407C15.1109 12.6407 14.8091 12.345 14.8091 12C14.8091 11.655 15.1109 11.3593 15.4629 11.3593H18.5806C18.9326 11.3593 19.2343 11.655 19.2343 12C19.2343 12.345 18.9326 12.6407 18.5806 12.6407H15.4629ZM9.504 12.6407C9.152 12.6407 8.85029 12.345 8.85029 12C8.85029 11.655 9.152 11.3593 9.504 11.3593H12.6217C12.9737 11.3593 13.2754 11.655 13.2754 12C13.2754 12.345 12.9737 12.6407 12.6217 12.6407H9.504ZM9.504 20.1561C9.152 20.1561 8.85029 19.8604 8.85029 19.5154C8.85029 19.1704 9.152 18.8748 9.504 18.8748H12.6217C12.9737 18.8748 13.2754 19.1704 13.2754 19.5154C13.2754 19.8604 12.9737 20.1561 12.6217 20.1561H9.504ZM3.54514 20.1561C3.19314 20.1561 2.89143 19.8604 2.89143 19.5154C2.89143 19.1704 3.19314 18.8748 3.54514 18.8748H6.66286C7.01486 18.8748 7.31657 19.1704 7.31657 19.5154C7.31657 19.8604 7.01486 20.1561 6.66286 20.1561H3.54514ZM15.4629 16.4107C15.1109 16.4107 14.8091 16.115 14.8091 15.77C14.8091 15.4251 15.1109 15.1294 15.4629 15.1294H18.5806C18.9326 15.1294 19.2343 15.4251 19.2343 15.77C19.2343 16.115 18.9326 16.4107 18.5806 16.4107H15.4629ZM9.504 16.4107C9.152 16.4107 8.85029 16.115 8.85029 15.77C8.85029 15.4251 9.152 15.1294 9.504 15.1294H12.6217C12.9737 15.1294 13.2754 15.4251 13.2754 15.77C13.2754 16.115 12.9737 16.4107 12.6217 16.4107H9.504ZM3.54514 16.4107C3.19314 16.4107 2.89143 16.115 2.89143 15.77C2.89143 15.4251 3.19314 15.1294 3.54514 15.1294H6.66286C7.01486 15.1294 7.31657 15.4251 7.31657 15.77C7.31657 16.115 7.01486 16.4107 6.66286 16.4107H3.54514ZM1.33257 8.13143H20.768V4.53389C20.768 4.31213 20.6674 4.09035 20.5166 3.9425C20.3657 3.79466 20.1394 3.6961 19.9131 3.6961H18.5303V5.47023C18.5303 5.8152 18.2286 6.11089 17.8766 6.11089C17.5246 6.11089 17.2229 5.8152 17.2229 5.47023V3.6961H4.85257V5.47023C4.85257 5.8152 4.55086 6.11089 4.19886 6.11089C3.84686 6.11089 3.54514 5.8152 3.54514 5.47023V3.6961H2.16229C1.936 3.6961 1.70972 3.79466 1.55886 3.9425L1.53372 3.96715C1.38286 4.11499 1.30743 4.31213 1.30743 4.53389V8.13143H1.33257ZM20.768 9.41273H1.33257V21.8809C1.33257 22.1027 1.43315 22.3244 1.584 22.4723C1.73486 22.6201 1.96115 22.7187 2.18743 22.7187H19.9131C20.1394 22.7187 20.3657 22.6201 20.5166 22.4723C20.6674 22.3244 20.768 22.1027 20.768 21.8809V9.41273ZM17.2229 2.43942H4.85257V0.640662C4.85257 0.295693 4.55086 0 4.19886 0C3.84686 0 3.54514 0.295693 3.54514 0.640662V2.43942H2.16229C1.55886 2.43942 1.03086 2.68583 0.653715 3.05544L0.603433 3.10473C0.22629 3.47434 0 3.99178 0 4.55852V8.79672V21.9055C0 22.4969 0.251429 23.0144 0.628571 23.384C1.00571 23.7536 1.55886 24 2.13714 24H19.8629C20.4411 24 20.9943 23.7536 21.3714 23.384C21.7486 23.0144 22 22.4723 22 21.9055V8.79672V4.55852C22 3.96714 21.7486 3.44969 21.3714 3.08008C20.9943 2.71047 20.4411 2.46407 19.8629 2.46407H18.48V0.665308C18.48 0.320339 18.1783 0.0246459 17.8263 0.0246459C17.4743 0.0246459 17.1726 0.320339 17.1726 0.665308V2.43942H17.2229Z" fill="white"/>
</svg>
