<svg width="50" height="47" viewBox="0 0 50 47" fill="none" xmlns="http://www.w3.org/2000/svg">
<path d="M2.00022 10.3281L2.00125 10.2959V10.2638V4.94735C2.00125 4.17251 2.31212 3.42509 2.87239 2.87069C3.43337 2.31559 4.19866 2 5.001 2H45.0032C45.8047 2.00111 46.5687 2.31704 47.1288 2.87182C47.6883 3.42612 47.9987 4.17305 47.9987 4.94735V10.2638V10.2959L47.9998 10.3281C48.0026 10.4152 47.9781 10.5028 47.927 10.579C47.8799 10.6494 47.8113 10.7078 47.7276 10.7445C46.364 11.2105 45.1754 12.084 44.3279 13.2496C43.4676 14.4327 43.0031 15.856 43.0031 17.3184C43.0031 18.7808 43.4676 20.2041 44.3279 21.3872C45.1754 22.5528 46.364 23.4263 47.7276 23.8923C47.8113 23.929 47.8799 23.9874 47.927 24.0578C47.9781 24.134 48.0026 24.2216 47.9998 24.3087L47.9987 24.3409V24.3731V29.6841C47.9987 30.459 47.6879 31.2064 47.1276 31.7608C46.5666 32.3159 45.8013 32.6315 44.999 32.6315H5.001C4.19866 32.6315 3.43337 32.3159 2.87239 31.7608C2.31212 31.2064 2.00125 30.459 2.00125 29.6841V24.3731V24.3409L2.00022 24.3087C1.99741 24.2216 2.02188 24.134 2.07295 24.0578C2.12013 23.9874 2.18869 23.929 2.27245 23.8923C3.63597 23.4263 4.82455 22.5528 5.67208 21.3872C6.53237 20.2041 6.99687 18.7808 6.99687 17.3184C6.99687 15.856 6.53237 14.4327 5.67208 13.2496C4.82455 12.084 3.63595 11.2105 2.27242 10.7445C2.18868 10.7078 2.12013 10.6494 2.07295 10.579C2.02188 10.5028 1.99741 10.4152 2.00022 10.3281ZM38.8073 44.8782L24.6481 41.5788H44.4813C44.2135 42.5492 43.6316 43.4111 42.8188 44.0305C41.9896 44.6623 40.9685 45.0047 39.9165 44.9999L39.9054 44.9998L39.8943 44.9999C39.5286 45.0023 39.1639 44.9615 38.8081 44.8784L38.8073 44.8782Z" stroke="#ED1C24" stroke-width="4"/>
</svg>
