<svg width="24" height="33" viewBox="0 0 24 33" fill="none" xmlns="http://www.w3.org/2000/svg">
<path fill-rule="evenodd" clip-rule="evenodd" d="M18.3273 12.9626C18.3273 13.0019 18.3273 13.0412 18.3273 13.0412C18.2876 13.1591 18.2876 13.3162 18.2479 13.4341C17.9306 14.8485 17.2562 16.5379 16.2645 17.8345L16.3041 19.131C16.3041 19.2489 16.3438 19.3275 16.3835 19.3667C16.4231 19.406 16.4231 19.406 16.4628 19.4453L16.7405 19.4846C16.9785 19.5239 17.2165 19.5632 17.4942 19.6025C19.1207 16.3808 19.795 13.1198 19.5967 10.2124C19.3983 7.1086 18.1686 4.43697 16.1058 2.66897C15.4314 2.07963 14.7173 1.72604 14.043 1.56888C13.4876 1.45101 12.9322 1.56888 12.4959 1.8439C12.4562 1.88319 12.4165 1.88318 12.4165 1.92247C12.2975 2.04033 12.2182 2.1189 12.0595 2.15819C12.0198 2.15819 11.9802 2.19749 11.9405 2.19749C11.3454 2.35464 11.0678 2.19748 10.8694 1.60815C10.7107 1.60815 10.4727 1.64743 10.2347 1.72601C9.52065 1.92246 8.64791 2.35464 7.81486 3.02255C5.5537 4.86913 4.48263 7.58006 4.32396 10.4482C4.12561 13.7091 5.11736 17.088 6.94215 19.5239L7.33884 19.4453L7.61653 19.406C7.6562 19.406 7.65618 19.3667 7.69585 19.3667C7.73552 19.2882 7.77521 19.2096 7.77521 19.131L7.81486 17.8345C7.53717 17.4809 7.29917 17.088 7.06116 16.6951C6.02975 14.9271 5.47437 12.6876 5.47437 10.9196C5.47437 10.8411 5.47437 10.6839 5.47437 10.5267C5.55371 9.19092 5.87108 8.09082 6.38678 7.1086C6.94216 6.16567 7.6562 5.34059 8.60826 4.55482L8.64794 4.51555C8.68761 4.47626 8.76692 4.43695 8.80659 4.39766C9.20329 4.20121 9.71902 4.35839 9.91736 4.79057C10.2347 5.45848 10.8694 5.89065 11.5835 6.16568C12.4165 6.47999 13.4083 6.63713 14.4 6.79428C15.3124 6.95144 16.1851 7.1086 16.8992 7.38362C17.8116 7.73722 18.4463 8.28728 18.5653 9.2695V9.30877C18.5653 9.58379 18.605 9.85884 18.605 10.1339C18.605 10.4089 18.605 10.6839 18.605 10.9589C18.5653 11.3911 18.5256 11.784 18.4859 12.2162C18.4463 12.4912 18.4066 12.7269 18.3273 12.9626ZM13.2893 16.8523C13.3289 16.813 13.3289 16.7737 13.3686 16.7737C14.043 16.6951 14.757 16.4986 15.3917 16.2236C15.2331 16.4986 15.0347 16.7344 14.876 16.9701C14.8364 17.0094 14.757 17.088 14.7174 17.1665L14.6777 17.2058C13.9636 17.9916 13.0909 18.5024 12.0198 18.5024H11.8612C10.8694 18.4631 9.95701 17.913 9.24296 17.088L9.20331 17.0487C8.92563 16.7344 8.64793 16.3415 8.44958 15.9486C7.57685 14.4163 7.10081 12.5305 7.10081 10.9982C7.10081 10.841 7.10081 10.7625 7.10081 10.6839C7.14047 9.62311 7.37849 8.75875 7.81486 8.01226C8.13221 7.46221 8.52893 6.99075 9.04463 6.47999C9.56033 7.06933 10.2347 7.50148 10.9884 7.7765C11.9802 8.16939 13.0909 8.36585 14.1223 8.523C14.9554 8.64087 15.7091 8.79804 16.3041 8.99448C16.6612 9.15164 16.8992 9.30878 16.9388 9.50523C16.9388 9.74096 16.9785 9.97669 16.9785 10.2124C16.9785 10.4482 16.9785 10.6839 16.9785 10.9589C16.9785 11.3125 16.9389 11.6661 16.8595 12.0197C16.8198 12.2162 16.7802 12.4126 16.7405 12.6483C16.7008 12.7662 16.5818 13.0412 16.5818 13.0805C16.3041 13.6699 15.7884 14.1806 15.1537 14.5342C14.5984 14.8485 14.0033 15.045 13.3686 15.1235L13.3289 15.0842C13.0909 14.8485 12.7736 14.7307 12.4165 14.7307C12.0595 14.7307 11.7421 14.8878 11.5041 15.0842C11.2661 15.32 11.1471 15.6343 11.1471 15.9879C11.1471 16.3415 11.3058 16.6558 11.5041 16.8915C11.7421 17.1273 12.0595 17.2451 12.4165 17.2451C12.7339 17.2059 13.0512 17.0487 13.2893 16.8523ZM14.638 19.3667C14.6777 19.7596 14.8364 20.1525 15.0744 20.4275C15.3521 20.7811 15.7091 21.0169 16.1851 21.0954L16.4628 21.1347C16.8595 21.2133 17.2562 21.2526 17.6132 21.3705C16.2248 21.9991 15.2727 22.5491 14.4397 23.4135C13.5669 24.3171 12.8925 25.5351 12.0595 27.5388C10.2744 23.4528 9.48099 22.8242 6.34711 21.4098C6.7438 21.3312 7.14048 21.2526 7.53717 21.174L7.81486 21.1347L7.89421 21.0954C8.29091 21.0169 8.64793 20.7811 8.88595 20.4668C9.12397 20.1525 9.28265 19.7989 9.32232 19.3667C10.0364 19.8382 10.8694 20.1132 11.7422 20.1525H11.9405C13.0116 20.1525 13.8843 19.8382 14.638 19.3667ZM19.1207 20.0739C19.3587 20.1525 19.5967 20.2311 19.795 20.349C21.8182 21.2526 22.8893 22.8242 23.4446 24.6314V24.71C23.9603 26.3995 24 28.3246 24 30.1712V30.5641C24 31.232 23.7223 31.8606 23.2859 32.2928C22.8496 32.725 22.2149 33 21.5405 33H2.45949C1.78511 33 1.15042 32.725 0.714051 32.2928C0.277687 31.8606 0 31.232 0 30.5641V30.1712V30.0926C0 28.246 0.0396452 26.3209 0.595018 24.6314C1.15039 22.7849 2.22149 21.2526 4.24463 20.349C4.56199 20.1918 4.83965 20.1132 5.15701 19.9954C3.37189 17.3237 2.41982 13.827 2.61817 10.4482C2.81652 7.14788 4.08594 3.9655 6.74379 1.8439C7.7752 1.01884 8.88593 0.468777 9.79833 0.233044C10.2347 0.115177 10.6711 0.0758844 11.0281 0.0758844C11.3851 0.115173 11.7025 0.193758 11.9405 0.390203C12.6942 -0.00268616 13.5273 -0.0812711 14.3603 0.0758844C15.3124 0.23304 16.3041 0.743806 17.2165 1.52958C19.5967 3.57261 21.0248 6.67643 21.2628 10.2124C21.4215 13.2377 20.7471 16.6558 19.1207 20.0739ZM4.20495 22.1956C3.13388 22.9028 2.49915 23.9243 2.14212 25.1029C1.66609 26.5959 1.62643 28.3639 1.62643 30.0926V30.1712V30.5641C1.62643 30.7998 1.70576 30.9963 1.86444 31.1141C2.02312 31.2713 2.22149 31.3498 2.41984 31.3498H21.5008C21.7389 31.3498 21.9372 31.2713 22.0562 31.1141C22.2149 30.957 22.2942 30.7605 22.2942 30.5641V30.1712C22.2942 28.4425 22.2546 26.6745 21.8182 25.1815L21.7785 25.1029C21.4215 23.9243 20.7868 22.9028 19.7157 22.1956C17.6132 23.0599 16.4628 23.6099 15.5901 24.5136C14.638 25.4958 13.9636 26.9888 12.8132 29.8962C12.7339 30.1319 12.5752 30.2891 12.3372 30.4069C11.9008 30.5641 11.4248 30.3676 11.2661 29.9747C8.92561 24.3564 8.56858 24.1993 4.72064 22.4706L4.20495 22.1956Z" fill="white"/>
</svg>
