<svg width="30" height="32" viewBox="0 0 30 32" fill="none" xmlns="http://www.w3.org/2000/svg">
<path d="M14.5622 0C12.969 0 11.4115 0.493886 10.0868 1.4192C8.76204 2.34452 7.72954 3.65971 7.11983 5.19845C6.51013 6.7372 6.3506 8.43039 6.66142 10.0639C6.97225 11.6974 7.73947 13.1979 8.86606 14.3756C9.99265 15.5533 11.428 16.3554 12.9906 16.6803C14.5533 17.0052 16.173 16.8385 17.6449 16.2011C19.1169 15.5637 20.375 14.4844 21.2601 13.0995C22.1453 11.7147 22.6178 10.0866 22.6178 8.42105C22.6178 6.18765 21.769 4.04572 20.2583 2.46647C18.7476 0.887215 16.6987 0 14.5622 0ZM14.5622 13.4737C13.6063 13.4737 12.6718 13.1774 11.8769 12.6222C11.0821 12.067 10.4626 11.2779 10.0968 10.3546C9.73095 9.43136 9.63524 8.41545 9.82173 7.43533C10.0082 6.45522 10.4686 5.55493 11.1445 4.8483C11.8205 4.14168 12.6817 3.66046 13.6193 3.46551C14.5568 3.27055 15.5287 3.37061 16.4118 3.75303C17.295 4.13545 18.0499 4.78306 18.581 5.61396C19.1121 6.44486 19.3955 7.42174 19.3955 8.42105C19.3955 9.76109 18.8863 11.0463 17.9799 11.9938C17.0735 12.9414 15.8441 13.4737 14.5622 13.4737ZM29.0622 32V30.3158C29.0622 27.189 27.874 24.1903 25.759 21.9794C23.644 19.7684 20.7755 18.5263 17.7844 18.5263H11.34C8.34892 18.5263 5.48037 19.7684 3.36538 21.9794C1.25039 24.1903 0.0621948 27.189 0.0621948 30.3158V32H3.28442V30.3158C3.28442 28.0824 4.13312 25.9405 5.64383 24.3612C7.15454 22.782 9.20351 21.8947 11.34 21.8947H17.7844C19.9209 21.8947 21.9698 22.782 23.4806 24.3612C24.9913 25.9405 25.84 28.0824 25.84 30.3158V32H29.0622Z" fill="#ED1C24"/>
</svg>
