<svg width="37" height="38" viewBox="0 0 37 38" fill="none" xmlns="http://www.w3.org/2000/svg">
<path d="M34.513 25.1528L26.4916 17.2098L34.513 9.26683L36.4027 11.1334L30.2711 17.2098L36.4027 23.2862L34.513 25.1528ZM26.4916 37.0673H23.8487V30.4481C23.8487 28.6926 23.1526 27.009 21.9134 25.7677C20.6743 24.5264 18.9937 23.829 17.2413 23.829H9.3125C7.56012 23.829 5.87951 24.5264 4.64039 25.7677C3.40127 27.009 2.70514 28.6926 2.70514 30.4481V37.0673H0.0621948V30.4481C0.0621948 27.9904 1.03678 25.6334 2.77155 23.8955C4.50632 22.1576 6.85917 21.1813 9.3125 21.1813H17.2413C19.6947 21.1813 22.0475 22.1576 23.7823 23.8955C25.5171 25.6334 26.4916 27.9904 26.4916 30.4481V37.0673ZM13.2769 2.64766C14.5837 2.64766 15.8612 3.03587 16.9478 3.76319C18.0343 4.49052 18.8812 5.52429 19.3813 6.73378C19.8814 7.94328 20.0123 9.27417 19.7573 10.5582C19.5024 11.8422 18.8731 13.0216 17.949 13.9473C17.025 14.873 15.8477 15.5034 14.566 15.7588C13.2842 16.0142 11.9557 15.8831 10.7484 15.3821C9.54105 14.8811 8.50912 14.0328 7.7831 12.9442C7.05707 11.8557 6.66956 10.576 6.66956 9.26683C6.66956 7.51132 7.36569 5.82771 8.60481 4.58637C9.84393 3.34504 11.5245 2.64766 13.2769 2.64766ZM13.2769 0C11.4474 0 9.65893 0.54349 8.13772 1.56174C6.61652 2.57999 5.43088 4.02727 4.73075 5.72057C4.03062 7.41386 3.84743 9.27711 4.20435 11.0747C4.56128 12.8723 5.44229 14.5235 6.73596 15.8195C8.02964 17.1155 9.67789 17.998 11.4723 18.3556C13.2667 18.7132 15.1266 18.5296 16.8169 17.8283C18.5071 17.1269 19.9518 15.9391 20.9683 14.4152C21.9847 12.8913 22.5272 11.0996 22.5272 9.26683C22.5272 6.80911 21.5526 4.45206 19.8179 2.71419C18.0831 0.976323 15.7303 0 13.2769 0Z" fill="#ED1C24"/>
</svg>
