<svg width="30" height="29" viewBox="0 0 30 29" fill="none" xmlns="http://www.w3.org/2000/svg">
<path fill-rule="evenodd" clip-rule="evenodd" d="M11.8005 6.67524C9.1123 6.67524 6.6421 7.76503 4.8621 9.54503C3.08211 11.325 1.99234 13.7589 1.99234 16.4834C1.99234 19.1715 3.08211 21.6417 4.8621 23.4217C6.6421 25.2017 9.07598 26.2915 11.8005 26.2915C14.4886 26.2915 16.9588 25.2017 18.7388 23.4217C20.5188 21.6417 21.6086 19.2078 21.6086 16.4834C21.6086 13.7952 20.5188 11.325 18.7388 9.54503C16.9225 7.76503 14.4886 6.67524 11.8005 6.67524ZM8.67638 5.73074V1.48056C8.67638 1.11729 8.967 0.790344 9.3666 0.790344H29.3098C29.6731 0.790344 30 1.08096 30 1.48056V7.00216V12.5238V18.0454V23.567C30 23.9303 29.7094 24.2572 29.3098 24.2572H19.7922L19.6833 24.3662C17.649 26.4005 14.8882 27.6356 11.8005 27.6356C8.71271 27.6356 5.91559 26.4005 3.91764 24.3662C1.88336 22.3319 0.648285 19.5711 0.648285 16.4834C0.648285 13.3956 1.88336 10.5985 3.91764 8.60053C5.22539 7.25646 6.86007 6.27564 8.67638 5.73074ZM20.9184 22.8768C21.7902 21.6417 22.4078 20.2613 22.7347 18.7356H28.6196V22.8768H20.9184ZM22.9163 17.3552H28.6196V13.214H22.4804C22.8074 14.2311 22.9527 15.3209 22.9527 16.4471C22.9527 16.774 22.9163 17.0646 22.9163 17.3552ZM21.9355 11.8336C21.3907 10.5985 20.5915 9.50869 19.647 8.5642C19.32 8.23726 18.9931 7.94666 18.6661 7.69237H28.5833V11.8336H21.9355ZM16.4502 6.31198H28.5833V2.17077H10.0205V5.44012C10.6017 5.36747 11.1829 5.29484 11.7641 5.29484C13.4715 5.29484 15.0335 5.6581 16.4502 6.31198Z" fill="white"/>
<path d="M6.0246 12.7054H8.16784C9.11233 12.7054 9.83884 12.8508 10.3111 13.105C10.7833 13.3956 11.0377 13.8679 11.0377 14.5218C11.0377 14.8124 11.0013 15.0667 10.8923 15.2846C10.7833 15.5026 10.6381 15.6842 10.4201 15.8658C10.2385 16.0112 9.98415 16.1201 9.69354 16.1565V16.1928C9.98415 16.2291 10.2748 16.3381 10.4927 16.4834C10.747 16.6287 10.9287 16.8103 11.0377 17.0283C11.183 17.2826 11.2556 17.5732 11.2556 17.9728C11.2556 18.4087 11.1466 18.8083 10.9287 19.1352C10.7107 19.4622 10.4201 19.6801 10.0205 19.8617C9.62093 20.0434 9.14867 20.116 8.6401 20.116H6.0246V12.7054ZM7.04173 15.8295H8.34948C8.93071 15.8295 9.36661 15.7206 9.58457 15.5389C9.80253 15.3573 9.94785 15.0667 9.94785 14.6671C9.94785 14.2675 9.80255 14.0132 9.54826 13.8316C9.25765 13.6499 8.82173 13.5773 8.24051 13.5773H7.07804V15.8295H7.04173ZM7.04173 16.665V19.2442H8.45846C9.07601 19.2442 9.51193 19.1352 9.76621 18.8809C10.0205 18.6267 10.1295 18.2997 10.1295 17.9001C10.1295 17.6458 10.0568 17.4279 9.94785 17.2462C9.83888 17.0646 9.65721 16.9193 9.40293 16.8103C9.14864 16.7014 8.82171 16.665 8.38579 16.665H7.04173Z" fill="white"/>
<path d="M15.2514 13.4683C14.8518 13.4683 14.5249 13.5409 14.2343 13.6862C13.9437 13.8315 13.6894 14.0132 13.4715 14.2674C13.2535 14.5217 13.1082 14.8123 12.9992 15.1756C12.8902 15.5389 12.8176 15.9385 12.8176 16.3744C12.8176 16.9556 12.8903 17.5005 13.0719 17.9364C13.2535 18.3723 13.5078 18.6993 13.8711 18.9536C14.2343 19.2079 14.6702 19.3168 15.2151 19.3168C15.5421 19.3168 15.8327 19.2805 16.1596 19.2442C16.4502 19.1715 16.7408 19.0989 17.0314 19.0262V19.9344C16.7408 20.0434 16.4502 20.116 16.1596 20.1887C15.869 20.225 15.5057 20.2613 15.1062 20.2613C14.3433 20.2613 13.7257 20.116 13.2172 19.7891C12.7086 19.4621 12.3454 19.0262 12.0911 18.445C11.8368 17.8638 11.7278 17.2099 11.7278 16.4107C11.7278 15.8658 11.8005 15.3209 11.9458 14.885C12.0911 14.4128 12.3454 14.0132 12.636 13.6862C12.9266 13.3593 13.2899 13.0687 13.7621 12.8871C14.198 12.7054 14.7066 12.5964 15.2878 12.5964C15.6511 12.5964 16.0143 12.6328 16.3776 12.7054C16.7409 12.7781 17.0678 12.8871 17.3584 13.0324L16.9588 13.9042C16.7045 13.7952 16.4502 13.6862 16.1596 13.6136C15.869 13.5409 15.542 13.4683 15.2514 13.4683Z" fill="white"/>
<path d="M23.6791 25.783C23.6791 25.9646 23.6428 26.1099 23.5701 26.2189C23.4975 26.3279 23.4248 26.4369 23.2795 26.5095C23.1705 26.5822 23.0252 26.6548 22.8799 26.6912V26.7275C23.1705 26.7638 23.4248 26.8728 23.5701 27.0181C23.7154 27.1634 23.7881 27.3814 23.7881 27.6356C23.7881 27.8536 23.7518 28.0352 23.6428 28.2169C23.5338 28.3985 23.3885 28.5075 23.1705 28.6165C22.9526 28.7255 22.662 28.7618 22.335 28.7618C22.1171 28.7618 21.9354 28.7618 21.7901 28.7254C21.6448 28.6891 21.4632 28.6528 21.2816 28.5801V28.0716C21.4269 28.1442 21.6085 28.2169 21.7901 28.2532C21.9717 28.2895 22.1534 28.3259 22.335 28.3259C22.662 28.3259 22.9162 28.2532 23.0616 28.1442C23.2069 27.9989 23.2795 27.8536 23.2795 27.5993C23.2795 27.454 23.2432 27.345 23.1705 27.2361C23.0979 27.1271 22.9889 27.0544 22.8072 27.0181C22.6619 26.9818 22.4804 26.9455 22.2261 26.9455H21.8628V26.5095H22.2261C22.444 26.5095 22.6257 26.4732 22.7346 26.4369C22.8799 26.3642 22.9889 26.2916 23.0252 26.1826C23.0978 26.0736 23.1342 25.9646 23.1342 25.8193C23.1342 25.6377 23.0616 25.4924 22.9526 25.4197C22.8436 25.3107 22.662 25.2744 22.444 25.2744C22.2987 25.2744 22.1897 25.2744 22.0807 25.3108C21.9718 25.3471 21.8628 25.3834 21.7901 25.4197C21.7175 25.4561 21.6085 25.5287 21.5359 25.565L21.2816 25.2018C21.4269 25.0928 21.6085 25.0201 21.7901 24.9112C22.0081 24.8385 22.226 24.8022 22.4803 24.8022C22.8799 24.8022 23.1705 24.8748 23.3522 25.0565C23.5701 25.3108 23.6791 25.5287 23.6791 25.783Z" fill="white"/>
<path d="M24.3694 27.0907C24.3694 26.8728 24.3694 26.6548 24.4057 26.4369C24.442 26.2189 24.4784 26.0009 24.551 25.8193C24.6237 25.6377 24.7326 25.456 24.878 25.3107C25.0233 25.1654 25.1686 25.0564 25.3865 24.9838C25.6045 24.9111 25.8224 24.8748 26.113 24.8748C26.1857 24.8748 26.2584 24.8748 26.3673 24.8748C26.4763 24.8748 26.549 24.9111 26.5853 24.9111V25.3471C26.5126 25.3107 26.44 25.3107 26.3673 25.3107C26.2947 25.3107 26.222 25.3107 26.113 25.3107C25.7861 25.3107 25.5318 25.3834 25.3502 25.4924C25.1686 25.6377 25.0233 25.783 24.9506 26.0373C24.878 26.2552 24.8416 26.5095 24.8053 26.8001H24.8416C24.8779 26.7275 24.9506 26.6548 25.0232 26.5821C25.0959 26.5095 25.2049 26.4732 25.3138 26.4005C25.4228 26.3642 25.5681 26.3279 25.7134 26.3279C25.9314 26.3279 26.113 26.3642 26.2947 26.4732C26.4763 26.5821 26.5853 26.6911 26.6579 26.8728C26.7306 27.0544 26.8032 27.2723 26.8032 27.4903C26.8032 27.7446 26.7669 27.9626 26.6579 28.1805C26.5489 28.3622 26.4036 28.5075 26.222 28.6165C26.0404 28.7254 25.8224 28.7618 25.5682 28.7618C25.3865 28.7618 25.2049 28.7254 25.0596 28.6528C24.9143 28.5801 24.769 28.4711 24.66 28.3258C24.551 28.1805 24.442 27.9989 24.3694 27.8173C24.3694 27.6356 24.3694 27.3814 24.3694 27.0907ZM25.6408 28.3258C25.8587 28.3258 26.0404 28.2532 26.1493 28.1079C26.2583 27.9626 26.331 27.7446 26.331 27.454C26.331 27.236 26.2583 27.0181 26.1493 26.9091C26.0404 26.7638 25.8587 26.6911 25.6408 26.6911C25.4955 26.6911 25.3502 26.7275 25.2412 26.8001C25.1322 26.8728 25.0233 26.9454 24.9506 27.0544C24.878 27.1634 24.8416 27.2724 24.8416 27.3813C24.8416 27.4903 24.8416 27.5993 24.878 27.7083C24.9143 27.8173 24.9506 27.9263 25.0232 27.9989C25.0959 28.1079 25.1686 28.1805 25.2775 28.2169C25.4228 28.3258 25.5318 28.3258 25.6408 28.3258Z" fill="white"/>
<path d="M29.8909 26.8002C29.8909 27.0908 29.8545 27.3814 29.8182 27.6356C29.7819 27.8899 29.7092 28.0716 29.6003 28.2532C29.4913 28.4348 29.3823 28.5438 29.2007 28.6528C29.0554 28.7255 28.8374 28.7981 28.6194 28.7981C28.3288 28.7981 28.1109 28.7254 27.8929 28.5801C27.7113 28.4348 27.566 28.2169 27.4933 27.9263C27.3843 27.6357 27.348 27.2724 27.348 26.8728C27.348 26.4732 27.3843 26.1099 27.4569 25.8193C27.5296 25.5287 27.6749 25.3108 27.8565 25.1655C28.0382 25.0202 28.2925 24.9475 28.5831 24.9475C28.8737 24.9475 29.128 25.0202 29.3096 25.1655C29.4913 25.3108 29.6366 25.5287 29.7455 25.8193C29.8545 26.0736 29.8909 26.4006 29.8909 26.8002ZM27.8929 26.8002C27.8929 27.1271 27.9292 27.4177 27.9655 27.6356C28.0018 27.8536 28.1108 28.0352 28.2198 28.1442C28.3288 28.2532 28.4741 28.3259 28.6557 28.3259C28.8374 28.3259 28.9827 28.2532 29.0917 28.1442C29.2007 28.0352 29.2733 27.8536 29.3459 27.6356C29.3823 27.4177 29.4186 27.1271 29.4186 26.8002C29.4186 26.4732 29.3823 26.1826 29.3459 25.9646C29.3096 25.7467 29.237 25.5651 29.128 25.4561C29.019 25.3471 28.8737 25.2745 28.6921 25.2745C28.5105 25.2745 28.3651 25.3471 28.2561 25.4561C28.1471 25.5651 28.0745 25.7467 28.0382 25.9646C27.9292 26.2189 27.8929 26.4732 27.8929 26.8002Z" fill="white"/>
</svg>
